<?xml version="1.0" encoding="UTF-8" standalone="no"?>
<svg
   xmlns:dc="http://purl.org/dc/elements/1.1/"
   xmlns:cc="http://creativecommons.org/ns#"
   xmlns:rdf="http://www.w3.org/1999/02/22-rdf-syntax-ns#"
   xmlns:svg="http://www.w3.org/2000/svg"
   xmlns="http://www.w3.org/2000/svg"
   xmlns:sodipodi="http://sodipodi.sourceforge.net/DTD/sodipodi-0.dtd"
   xmlns:inkscape="http://www.inkscape.org/namespaces/inkscape"
   width="30"
   height="30"
   id="svg2"
   version="1.1"
   inkscape:version="1.0 (4035a4fb49, 2020-05-01)"
   sodipodi:docname="button-group_original.svg">
  <defs
     id="defs4" />
  <sodipodi:namedview
     id="base"
     pagecolor="#ffffff"
     bordercolor="#666666"
     borderopacity="1.0"
     inkscape:pageopacity="0.0"
     inkscape:pageshadow="2"
     inkscape:zoom="5.656854"
     inkscape:cx="-76.075132"
     inkscape:cy="20.896336"
     inkscape:document-units="px"
     inkscape:current-layer="layer1"
     showgrid="false"
     inkscape:window-width="1920"
     inkscape:window-height="1018"
     inkscape:window-x="-8"
     inkscape:window-y="-8"
     inkscape:window-maximized="1"
     fit-margin-top="0"
     fit-margin-left="0"
     fit-margin-right="0"
     fit-margin-bottom="0"
     units="px"
     inkscape:snap-bbox="true"
     inkscape:bbox-paths="true"
     inkscape:bbox-nodes="true"
     inkscape:snap-page="true"
     inkscape:snap-intersection-paths="false"
     inkscape:document-rotation="0" />
  <metadata
     id="metadata7">
    <rdf:RDF>
      <cc:Work
         rdf:about="">
        <dc:format>image/svg+xml</dc:format>
        <dc:type
           rdf:resource="http://purl.org/dc/dcmitype/StillImage" />
        <dc:title></dc:title>
      </cc:Work>
    </rdf:RDF>
  </metadata>
  <g
     inkscape:label="Ebene 1"
     inkscape:groupmode="layer"
     id="layer1"
     transform="translate(-320.59587,-283.1464)">
    <path
       style="color:#000000;font-style:normal;font-variant:normal;font-weight:normal;font-stretch:normal;font-size:medium;line-height:normal;font-family:sans-serif;font-variant-ligatures:normal;font-variant-position:normal;font-variant-caps:normal;font-variant-numeric:normal;font-variant-alternates:normal;font-feature-settings:normal;text-indent:0;text-align:start;text-decoration:none;text-decoration-line:none;text-decoration-style:solid;text-decoration-color:#000000;letter-spacing:normal;word-spacing:normal;text-transform:none;writing-mode:lr-tb;direction:ltr;text-orientation:mixed;dominant-baseline:auto;baseline-shift:baseline;text-anchor:start;white-space:normal;shape-padding:0;clip-rule:nonzero;display:inline;overflow:visible;visibility:visible;opacity:1;isolation:auto;mix-blend-mode:normal;color-interpolation:sRGB;color-interpolation-filters:linearRGB;solid-color:#000000;solid-opacity:1;vector-effect:none;fill:#b68a0e;fill-opacity:1;fill-rule:nonzero;stroke:none;stroke-width:2.11420345;stroke-linecap:round;stroke-linejoin:miter;stroke-miterlimit:4;stroke-dasharray:none;stroke-dashoffset:0;stroke-opacity:1;color-rendering:auto;image-rendering:auto;shape-rendering:auto;text-rendering:auto;enable-background:accumulate"
       d="m 335.59638,283.1464 c -8.27176,0 -15.00067,6.7277 -15.00067,14.99944 0,8.27176 6.72891,15.00065 15.00067,15.00065 8.27177,0 14.99949,-6.72889 14.99949,-15.00065 0,-8.27174 -6.72772,-14.99944 -14.99949,-14.99944 z m 0,2.11433 c 7.12917,0 12.88515,5.75597 12.88515,12.88511 0,7.12916 -5.75598,12.88632 -12.88515,12.88632 -7.12915,0 -12.88633,-5.75716 -12.88633,-12.88632 0,-7.12914 5.75718,-12.88511 12.88633,-12.88511 z"
       id="path13925"
       inkscape:connector-curvature="0" />
    <ellipse
       style="opacity:1;fill:#b68a0e;fill-opacity:1;stroke:none;stroke-width:0.2278249;stroke-linecap:round;stroke-linejoin:miter;stroke-miterlimit:4;stroke-dasharray:none;stroke-opacity:1"
       id="path4155"
       cx="335.76712"
       cy="292.00211"
       rx="5.5199952"
       ry="5.5199847" />
    <path
       style="fill:#b68a0e;fill-opacity:1;fill-rule:evenodd;stroke:none;stroke-width:0.45564979px;stroke-linecap:butt;stroke-linejoin:miter;stroke-opacity:1"
       d="m 329.79506,298.45696 c -0.91377,0 -1.89071,0.6078 -2.38126,2.3168 l -0.95977,4.06993 c 2.21784,2.9031 5.65964,4.60849 9.31292,4.61485 3.65328,-0.006 7.09625,-1.71175 9.3141,-4.61485 l -0.96094,-4.06993 c -0.49056,-1.709 -1.4675,-2.3168 -2.38126,-2.3168 h -5.9719 z"
       id="path4157-7"
       inkscape:connector-curvature="0" />
    <path
       d="m 300.5319,297.60075 a 5.5199952,5.5199847 0 0 0 -3.11524,0.96289 c 2.34637,0.87987 4.03713,3.09645 4.20313,5.71679 0.0529,0.12412 0.0801,0.25766 0.0801,0.39258 0,0.13492 -0.0272,0.26847 -0.0801,0.39258 -0.0845,1.33556 -0.56904,2.56415 -1.33008,3.56836 a 5.5199952,5.5199847 0 0 0 0.24219,0.006 5.5199952,5.5199847 0 0 0 5.51953,-5.51953 5.5199952,5.5199847 0 0 0 -5.51953,-5.51953 z"
       style="opacity:1;fill:#b68a0e;fill-opacity:1;stroke:none;stroke-width:0.227825;stroke-linecap:round;stroke-linejoin:miter;stroke-miterlimit:4;stroke-dasharray:none;stroke-opacity:1"
       id="path4155-5" />
    <path
       sodipodi:nodetypes="sccscccccscs"
       d="m 299.91862,309.57536 c -0.46954,-10e-6 -0.95448,0.16482 -1.38282,0.55273 h 2.00391 0.61328 c 1.3572,0 2.77144,1.05404 3.3418,3.04102 l 0.006,0.0234 1.07617,4.55273 c 0.18605,0.0989 3.46941,-1.44488 4.26758,-1.7832 l -0.96094,-4.07032 c -0.49056,-1.709 -1.4671,-2.3164 -2.38086,-2.3164 h -5.9707 z"
       style="fill:#b68a0e;fill-opacity:1;fill-rule:evenodd;stroke:none;stroke-width:0.45565px;stroke-linecap:butt;stroke-linejoin:miter;stroke-opacity:1"
       id="path4157-7-0" />
    <path
       style="color:#000000;font-style:normal;font-variant:normal;font-weight:normal;font-stretch:normal;font-size:medium;line-height:normal;font-family:sans-serif;font-variant-ligatures:normal;font-variant-position:normal;font-variant-caps:normal;font-variant-numeric:normal;font-variant-alternates:normal;font-variant-east-asian:normal;font-feature-settings:normal;font-variation-settings:normal;text-indent:0;text-align:start;text-decoration:none;text-decoration-line:none;text-decoration-style:solid;text-decoration-color:#000000;letter-spacing:normal;word-spacing:normal;text-transform:none;writing-mode:lr-tb;direction:ltr;text-orientation:mixed;dominant-baseline:auto;baseline-shift:baseline;text-anchor:start;white-space:normal;shape-padding:0;shape-margin:0;inline-size:0;clip-rule:nonzero;display:inline;overflow:visible;visibility:visible;opacity:1;isolation:auto;mix-blend-mode:normal;color-interpolation:sRGB;color-interpolation-filters:linearRGB;solid-color:#000000;solid-opacity:1;vector-effect:none;fill:#000000;fill-opacity:1;fill-rule:nonzero;stroke:none;stroke-width:2;stroke-linecap:round;stroke-linejoin:miter;stroke-miterlimit:4;stroke-dasharray:none;stroke-dashoffset:0;stroke-opacity:1;color-rendering:auto;image-rendering:auto;shape-rendering:auto;text-rendering:auto;enable-background:accumulate;stop-color:#000000;stop-opacity:1"
       d="m 278.52925,275.96144 c -3.58904,0 -6.51953,2.93048 -6.51953,6.51953 10e-6,3.58904 2.93049,6.52148 6.51953,6.52148 3.44997,0 6.22438,-2.73126 6.43946,-6.12891 0.0529,-0.12411 0.0801,-0.25765 0.0801,-0.39257 6e-5,-0.13492 -0.0272,-0.26846 -0.0801,-0.39258 -0.21523,-3.39751 -2.98959,-6.12696 -6.43946,-6.12695 z"
       id="path937-2"
       sodipodi:nodetypes="ccscccc" />
    <path
       style="color:#000000;font-style:normal;font-variant:normal;font-weight:normal;font-stretch:normal;font-size:medium;line-height:normal;font-family:sans-serif;font-variant-ligatures:normal;font-variant-position:normal;font-variant-caps:normal;font-variant-numeric:normal;font-variant-alternates:normal;font-variant-east-asian:normal;font-feature-settings:normal;font-variation-settings:normal;text-indent:0;text-align:start;text-decoration:none;text-decoration-line:none;text-decoration-style:solid;text-decoration-color:#000000;letter-spacing:normal;word-spacing:normal;text-transform:none;writing-mode:lr-tb;direction:ltr;text-orientation:mixed;dominant-baseline:auto;baseline-shift:baseline;text-anchor:start;white-space:normal;shape-padding:0;shape-margin:0;inline-size:0;clip-rule:nonzero;display:inline;overflow:visible;visibility:visible;opacity:1;isolation:auto;mix-blend-mode:normal;color-interpolation:sRGB;color-interpolation-filters:linearRGB;solid-color:#000000;solid-opacity:1;vector-effect:none;fill:#000000;fill-opacity:1;fill-rule:evenodd;stroke:none;stroke-width:2;stroke-linecap:butt;stroke-linejoin:miter;stroke-miterlimit:4;stroke-dasharray:none;stroke-dashoffset:0;stroke-opacity:1;color-rendering:auto;image-rendering:auto;shape-rendering:auto;text-rendering:auto;enable-background:accumulate;stop-color:#000000;stop-opacity:1"
       d="m 272.5566,287.93604 c -1.35721,0 -2.77146,1.05403 -3.3418,3.04102 l -0.006,0.0234 -1.07422,4.55468 0.28711,0.375 c 2.40614,3.14958 6.14208,5.00092 10.10547,5.00782 h 0.002 0.002 c 3.96352,-0.007 7.7012,-1.85814 10.10742,-5.00782 l 0.28711,-0.37695 -1.07617,-4.55273 -0.006,-0.0234 c -0.57036,-1.98698 -1.9846,-3.04102 -3.3418,-3.04102 h -5.97266 z"
       id="path941-5"
       sodipodi:nodetypes="sccccscsccccscs" />
    <ellipse
       ry="5.5199847"
       rx="5.5199952"
       cy="304.86224"
       cx="294.87442"
       id="path4155-4"
       style="opacity:1;fill:#b68a0e;fill-opacity:1;stroke:none;stroke-width:0.227825;stroke-linecap:round;stroke-linejoin:miter;stroke-miterlimit:4;stroke-dasharray:none;stroke-opacity:1" />
    <path
       inkscape:connector-curvature="0"
       id="path4157-7-6"
       d="m 288.90239,311.31696 c -0.91377,0 -1.89071,0.6078 -2.38126,2.3168 l -0.95977,4.06993 c 2.21784,2.9031 5.65964,4.60849 9.31292,4.61485 3.65328,-0.006 7.09625,-1.71175 9.3141,-4.61485 l -0.96094,-4.06993 c -0.49056,-1.709 -1.4675,-2.3168 -2.38126,-2.3168 h -5.9719 z"
       style="fill:#b68a0e;fill-opacity:1;fill-rule:evenodd;stroke:none;stroke-width:0.45565px;stroke-linecap:butt;stroke-linejoin:miter;stroke-opacity:1" />
    <path
       id="path4155-5-6"
       style="opacity:1;fill:#b68a0e;fill-opacity:1;stroke:none;stroke-width:0.227825;stroke-linecap:round;stroke-linejoin:miter;stroke-miterlimit:4;stroke-dasharray:none;stroke-opacity:1"
       d="m 306.18352,296.00239 a 5.5199952,5.5199847 0 0 0 -3.11523,0.96289 c 2.34637,0.87987 4.03713,3.09645 4.20312,5.7168 0.0529,0.12412 0.0801,0.25766 0.0801,0.39258 0,0.13492 -0.0272,0.26846 -0.0801,0.39257 -0.0845,1.33557 -0.56903,2.56415 -1.33007,3.56836 a 5.5199952,5.5199847 0 0 0 0.24218,0.006 5.5199952,5.5199847 0 0 0 5.51953,-5.51953 5.5199952,5.5199847 0 0 0 -5.51953,-5.51953 z" />
    <path
       id="path4157-7-0-8"
       style="fill:#b68a0e;fill-opacity:1;fill-rule:evenodd;stroke:none;stroke-width:0.45565px;stroke-linecap:butt;stroke-linejoin:miter;stroke-opacity:1"
       d="m 305.57024,307.977 c -0.46954,0 -0.95448,0.16483 -1.38281,0.55273 h 2.00391 0.61328 c 1.3572,0 2.77143,1.05404 3.34179,3.04102 l 0.006,0.0234 1.07618,4.55274 c 0.18605,0.0989 3.46941,-1.44489 4.26757,-1.78321 l -0.96093,-4.07031 c -0.49056,-1.709 -1.4671,-2.31641 -2.38086,-2.31641 h -5.97071 z"
       sodipodi:nodetypes="sccscccccscs" />
  </g>
</svg>
