<?xml version="1.0" encoding="UTF-8" standalone="no"?>
<svg
   xmlns:dc="http://purl.org/dc/elements/1.1/"
   xmlns:cc="http://creativecommons.org/ns#"
   xmlns:rdf="http://www.w3.org/1999/02/22-rdf-syntax-ns#"
   xmlns:svg="http://www.w3.org/2000/svg"
   xmlns="http://www.w3.org/2000/svg"
   xmlns:sodipodi="http://sodipodi.sourceforge.net/DTD/sodipodi-0.dtd"
   xmlns:inkscape="http://www.inkscape.org/namespaces/inkscape"
   sodipodi:docname="button-flag-gb.svg"
   inkscape:version="1.0 (4035a4fb49, 2020-05-01)"
   version="1.1"
   id="svg2"
   height="30"
   width="30">
  <defs
     id="defs4">
    <clipPath
       id="s">
      <path
         d="M 0,0 V 30 H 60 V 0 Z"
         id="path2" />
    </clipPath>
    <clipPath
       id="t">
      <path
         d="m 30,15 h 30 v 15 z m 0,0 V 30 H 0 Z m 0,0 H 0 V 0 Z m 0,0 V 0 h 30 z"
         id="path5" />
    </clipPath>
    <clipPath
       id="s-0">
      <path
         id="path2-1"
         d="M 0,0 V 30 H 60 V 0 Z" />
    </clipPath>
    <clipPath
       id="t-9">
      <path
         id="path5-3"
         d="m 30,15 h 30 v 15 z m 0,0 V 30 H 0 Z m 0,0 H 0 V 0 Z m 0,0 V 0 h 30 z" />
    </clipPath>
    <clipPath
       id="t-9-2">
      <path
         d="m 30,15 h 30 v 15 z m 0,0 V 30 H 0 Z m 0,0 H 0 V 0 Z m 0,0 V 0 h 30 z"
         id="path5-3-3" />
    </clipPath>
    <clipPath
       id="t-9-2-6">
      <path
         id="path5-3-3-4"
         d="m 30,15 h 30 v 15 z m 0,0 V 30 H 0 Z m 0,0 H 0 V 0 Z m 0,0 V 0 h 30 z" />
    </clipPath>
    <clipPath
       id="s-7">
      <path
         id="path2-9"
         d="M 0,0 V 30 H 60 V 0 Z" />
    </clipPath>
    <clipPath
       id="t-1">
      <path
         id="path5-2"
         d="m 30,15 h 30 v 15 z m 0,0 V 30 H 0 Z m 0,0 H 0 V 0 Z m 0,0 V 0 h 30 z" />
    </clipPath>
  </defs>
  <sodipodi:namedview
     inkscape:object-nodes="false"
     inkscape:snap-smooth-nodes="false"
     inkscape:snap-bbox-midpoints="false"
     inkscape:snap-global="true"
     inkscape:guide-bbox="true"
     showguides="true"
     inkscape:snap-bbox-edge-midpoints="true"
     inkscape:document-rotation="0"
     inkscape:snap-intersection-paths="true"
     inkscape:snap-page="true"
     inkscape:bbox-nodes="true"
     inkscape:bbox-paths="true"
     inkscape:snap-bbox="true"
     units="px"
     fit-margin-bottom="0"
     fit-margin-right="0"
     fit-margin-left="0"
     fit-margin-top="0"
     inkscape:window-maximized="1"
     inkscape:window-y="-8"
     inkscape:window-x="-8"
     inkscape:window-height="1018"
     inkscape:window-width="1920"
     showgrid="false"
     inkscape:current-layer="layer1"
     inkscape:document-units="px"
     inkscape:cy="14.671511"
     inkscape:cx="20.25902"
     inkscape:zoom="11.313708"
     inkscape:pageshadow="2"
     inkscape:pageopacity="0.0"
     borderopacity="1.0"
     bordercolor="#666666"
     pagecolor="#ffffff"
     id="base" />
  <metadata
     id="metadata7">
    <rdf:RDF>
      <cc:Work
         rdf:about="">
        <dc:format>image/svg+xml</dc:format>
        <dc:type
           rdf:resource="http://purl.org/dc/dcmitype/StillImage" />
        <dc:title></dc:title>
      </cc:Work>
    </rdf:RDF>
  </metadata>
  <g
     transform="translate(-320.59587,-283.1464)"
     id="layer1"
     inkscape:groupmode="layer"
     inkscape:label="Ebene 1">
    <path
       d="m 334.41032,285.3213 c -0.20459,0.0189 -0.4038,0.0518 -0.60547,0.0801 0.20108,-0.0292 0.40139,-0.0605 0.60547,-0.0801 z m 2.40625,0 c 0.20692,0.0198 0.40943,0.0524 0.61328,0.082 -0.20428,-0.0288 -0.40601,-0.0629 -0.61328,-0.082 z m -3.51953,0.1582 c -0.28622,0.0518 -0.56647,0.11719 -0.84571,0.1875 0.27808,-0.0712 0.56082,-0.13444 0.84571,-0.1875 z m 4.6289,0 c 0.2778,0.0516 0.5529,0.11082 0.82422,0.17969 -0.27208,-0.0679 -0.54552,-0.12932 -0.82422,-0.17969 z m -5.64062,0.23047 c -0.32424,0.0863 -0.64346,0.18264 -0.95703,0.29297 0.31362,-0.11034 0.63331,-0.20557 0.95703,-0.29297 z m -0.95703,0.29297 c -2.34184,0.82394 -4.36915,2.29812 -5.86719,4.21484 l 5.86719,2.92188 z m 7.6289,-0.29102 c 0.31684,0.0859 0.63039,0.18112 0.9375,0.28907 -0.30736,-0.10804 -0.61988,-0.20413 -0.9375,-0.28907 z m 0.9375,0.28907 v 7.12109 l 5.84766,-2.93359 c -1.49633,-1.90365 -3.51625,-3.36804 -5.84766,-4.1875 z m 5.84766,4.1875 c 0.61439,0.78168 1.13699,1.63894 1.56055,2.55078 -0.42231,-0.91378 -0.94567,-1.76853 -1.56055,-2.55078 z m -20.29492,0.0469 c -0.61345,0.78769 -1.13573,1.64701 -1.55469,2.56641 0.42035,-0.91742 0.94172,-1.77933 1.55469,-2.56641 z m 21.93554,2.67188 c 0.10249,0.22928 0.192,0.46501 0.28125,0.70117 -0.0888,-0.23649 -0.17917,-0.47157 -0.28125,-0.70117 z m -23.54492,0.01 c -0.10011,0.22565 -0.18807,0.45716 -0.27539,0.68946 0.0878,-0.23198 0.17485,-0.46411 0.27539,-0.68946 z m 23.97852,1.10547 c 0.0673,0.19865 0.12779,0.40062 0.18554,0.60352 -0.0574,-0.20324 -0.11854,-0.40454 -0.18554,-0.60352 z m -24.41211,0.0156 c -0.0653,0.19456 -0.12553,0.39122 -0.18164,0.58984 0.0564,-0.19826 0.11605,-0.39565 0.18164,-0.58984 z m 24.74805,1.17773 c 0.0415,0.17753 0.0812,0.35484 0.11523,0.53516 -0.0338,-0.18037 -0.074,-0.35756 -0.11523,-0.53516 z m -25.08399,0.0156 c -0.0398,0.17243 -0.0785,0.34449 -0.11133,0.51953 0.0331,-0.17492 0.0713,-0.34724 0.11133,-0.51953 z m 25.3125,1.25976 c 0.0182,0.14115 0.0411,0.28125 0.0547,0.42383 -0.0135,-0.14303 -0.0366,-0.28222 -0.0547,-0.42383 z m -25.53711,0.004 c -0.0181,0.14224 -0.0412,0.28211 -0.0547,0.42578 0.0136,-0.1434 0.0364,-0.28383 0.0547,-0.42578 z m -0.0566,2.86133 c 0.0151,0.16216 0.0415,0.32012 0.0625,0.48046 -0.0211,-0.16024 -0.0473,-0.31837 -0.0625,-0.48046 z m 25.64844,0.0137 c -0.0136,0.14343 -0.0364,0.28379 -0.0547,0.42578 0.0181,-0.14225 0.0412,-0.28211 0.0547,-0.42578 z m -25.47852,1.16992 c 0.0333,0.17771 0.0728,0.35231 0.11328,0.52734 -0.0407,-0.17469 -0.0798,-0.34995 -0.11328,-0.52734 z m 25.31055,0.002 c -0.0324,0.17137 -0.0703,0.34092 -0.10938,0.50977 0.0389,-0.16925 0.0772,-0.33803 0.10938,-0.50977 z m -0.26953,1.13281 c -0.0552,0.19349 -0.11184,0.38656 -0.17578,0.57618 0.0637,-0.19 0.12083,-0.38232 0.17578,-0.57618 z m -24.77149,0.002 c 0.0546,0.1926 0.11254,0.38348 0.17579,0.57226 -0.0636,-0.18853 -0.12083,-0.3799 -0.17579,-0.57226 z m 24.44137,0.99762 c -0.0903,0.23952 -0.18124,0.47849 -0.28516,0.71094 0.10347,-0.23267 0.19531,-0.47119 0.28516,-0.71094 z m -24.0918,0.0469 c 0.084,0.2215 0.16799,0.44277 0.26368,0.6582 -0.0961,-0.21516 -0.17923,-0.43698 -0.26368,-0.6582 z m 16.31836,0.43164 v 7.13867 c 2.3428,-0.82365 4.37064,-2.2993 5.86914,-4.21679 z m -8.5664,0.0195 -5.84375,2.93164 c 1.49576,1.90239 3.5142,3.36575 5.84375,4.18555 z m 16.02734,0.27149 c -0.42606,0.94027 -0.96007,1.82074 -1.58789,2.625 0.62811,-0.80464 1.16324,-1.68288 1.58789,-2.625 z m -23.42578,0.12304 c 0.42069,0.9071 0.94014,1.75589 1.55078,2.53321 -0.61028,-0.77686 -1.12878,-1.62791 -1.55078,-2.53321 z m 7.40234,6.72461 c 0.31218,0.10974 0.63038,0.20512 0.95313,0.29102 -0.32233,-0.087 -0.64083,-0.18123 -0.95313,-0.29102 z m 8.54883,0.004 c -0.30279,0.10609 -0.61158,0.20048 -0.92383,0.28515 0.31293,-0.0837 0.62085,-0.17901 0.92383,-0.28515 z m -7.42969,0.33008 c 0.27924,0.0703 0.55949,0.13567 0.84571,0.1875 -0.28489,-0.0531 -0.56763,-0.11629 -0.84571,-0.1875 z m 6.29883,0.008 c -0.27132,0.0689 -0.54641,0.12809 -0.82422,0.17969 0.2787,-0.0504 0.55214,-0.11175 0.82422,-0.17969 z m -1.32031,0.25586 c -0.20385,0.0297 -0.40635,0.0622 -0.61328,0.082 0.20727,-0.0191 0.409,-0.0533 0.61328,-0.082 z m -3.625,0.002 c 0.20167,0.0283 0.40088,0.0612 0.60547,0.0801 -0.20408,-0.0196 -0.40439,-0.0509 -0.60547,-0.0801 z"
       style="fill:#012169;fill-opacity:1;stroke-width:0.111;stroke-linecap:round;stroke-miterlimit:4;stroke-dasharray:none"
       id="rect1915" />
    <path
       d="m 335.61345,285.26063 c 0.40915,0 0.81192,0.0251 1.21093,0.0625 -0.39863,-0.0385 -0.80173,-0.0625 -1.21093,-0.0625 z m 0,0 c -0.40881,0 -0.81076,0.0221 -1.20899,0.0606 0.39808,-0.0371 0.80081,-0.0606 1.20899,-0.0606 z m 1.7539,0.13281 c 0.1884,0.0257 0.37675,0.0523 0.5625,0.0859 -0.18562,-0.0345 -0.37414,-0.0595 -0.5625,-0.0859 z m -3.51562,0.002 c -0.18488,0.0261 -0.3705,0.0501 -0.55274,0.084 0.18266,-0.0331 0.36752,-0.0586 0.55274,-0.084 z m 4.33789,0.14062 v 10.0332 h 10.03906 c -0.22924,-1.12399 -0.6046,-2.19156 -1.10547,-3.1875 l -2.95703,1.48243 h -3.41992 l 5.61719,-2.81446 c -0.19559,-0.29551 -0.40268,-0.58343 -0.6211,-0.86133 l -5.84765,2.9336 v -7.1211 c -0.55142,-0.19381 -1.12321,-0.34409 -1.70508,-0.46484 z m -5.1543,0.002 c -0.58252,0.1211 -1.15496,0.27061 -1.70703,0.46485 v 7.13672 l -5.86719,-2.92188 c -0.52995,0.67811 -0.98464,1.41661 -1.37304,2.19336 l 2.91796,1.45313 h -3.43945 l -0.084,-0.041 c 0.16212,-0.45626 0.35226,-0.89746 0.5625,-1.32812 -0.47299,0.96352 -0.82809,1.99285 -1.04883,3.07421 h 10.03906 z m 13.43945,5.69532 c 0.21561,0.34161 0.4175,0.69253 0.60157,1.05468 -0.18546,-0.36141 -0.38411,-0.71403 -0.60157,-1.05468 z m -23.51757,4.51757 c -0.0506,0.26768 -0.0894,0.53913 -0.12305,0.8125 0.0336,-0.2732 0.0728,-0.54479 0.12305,-0.8125 z m 25.31054,0 c 0.0502,0.26771 0.0895,0.5393 0.12305,0.8125 -0.0336,-0.27313 -0.0726,-0.54506 -0.12305,-0.8125 z m 0.16797,1.15625 c 0.0391,0.40775 0.0625,0.81991 0.0625,1.23829 0,-0.41862 -0.0234,-0.83027 -0.0625,-1.23829 z m 0.0625,1.23829 c 0,0.41609 -0.0239,0.82682 -0.0625,1.23242 0.0387,-0.40595 0.0625,-0.81598 0.0625,-1.23242 z m -25.70898,-1.23243 c -0.0387,0.40585 -0.0625,0.8161 -0.0625,1.23243 0,-0.41641 0.0238,-0.82655 0.0625,-1.23243 z m -0.0625,1.23243 c 0,0.41073 0.0248,0.81624 0.0625,1.21679 -0.0376,-0.40061 -0.0625,-0.80596 -0.0625,-1.21679 z m 25.66211,1.5957 c -0.0332,0.2681 -0.0719,0.53407 -0.1211,0.79687 0.0495,-0.26252 0.0878,-0.52885 0.1211,-0.79687 z m -25.54493,0.0469 c 0.0322,0.25152 0.0668,0.50139 0.11329,0.74805 -0.0462,-0.24669 -0.0812,-0.49668 -0.11329,-0.74805 z m 0.15235,0.93555 c 0.22941,1.12367 0.60452,2.19178 1.10547,3.1875 l 2.95703,-1.48047 h 3.42187 l -5.61718,2.8125 c 0.19571,0.29559 0.40253,0.58336 0.62109,0.86133 l 5.84375,-2.93164 v 7.11719 c 0.55204,0.19427 1.1245,0.34375 1.70703,0.46484 v -10.03125 z m 15.19336,0 v 10.0332 c 0.58189,-0.12074 1.15369,-0.27099 1.70508,-0.46484 v -7.13867 l 5.86914,2.92187 c 0.5301,-0.67832 0.98463,-1.41642 1.37304,-2.19336 l -2.91601,-1.45117 h 3.4375 l 0.084,0.041 c -0.16184,0.45507 -0.35275,0.89463 -0.5625,1.32422 0.47244,-0.96294 0.82825,-1.99168 1.04883,-3.07227 z m -14.00391,3.35352 c 0.0707,0.13554 0.13958,0.27163 0.21485,0.40429 -0.0737,-0.13328 -0.14503,-0.26845 -0.21485,-0.40429 z m 9.11328,6.73632 c 0.18224,0.0339 0.36786,0.0579 0.55274,0.084 -0.18522,-0.0254 -0.37008,-0.0509 -0.55274,-0.084 z m 4.63086,0 c -0.18575,0.0337 -0.3741,0.0602 -0.5625,0.0859 0.18837,-0.0265 0.37687,-0.0514 0.5625,-0.0859 z m -1.10547,0.15625 c -0.39901,0.0374 -0.80178,0.0625 -1.21093,0.0625 0.40917,0 0.8123,-0.024 1.21093,-0.0625 z m -1.21093,0.0625 c -0.40817,0 -0.81091,-0.0234 -1.20899,-0.0605 0.39823,0.0385 0.8002,0.0605 1.20899,0.0605 z"
       style="fill:#ffffff;fill-opacity:1;stroke-width:0.148096;stroke-linecap:round;stroke-miterlimit:4;stroke-dasharray:none"
       id="rect1813-6" />
    <path
       style="color:#000000;font-style:normal;font-variant:normal;font-weight:normal;font-stretch:normal;font-size:medium;line-height:normal;font-family:sans-serif;font-variant-ligatures:normal;font-variant-position:normal;font-variant-caps:normal;font-variant-numeric:normal;font-variant-alternates:normal;font-feature-settings:normal;text-indent:0;text-align:start;text-decoration:none;text-decoration-line:none;text-decoration-style:solid;text-decoration-color:#000000;letter-spacing:normal;word-spacing:normal;text-transform:none;writing-mode:lr-tb;direction:ltr;text-orientation:mixed;dominant-baseline:auto;baseline-shift:baseline;text-anchor:start;white-space:normal;shape-padding:0;clip-rule:nonzero;display:inline;overflow:visible;visibility:visible;opacity:1;isolation:auto;mix-blend-mode:normal;color-interpolation:sRGB;color-interpolation-filters:linearRGB;solid-color:#000000;solid-opacity:1;vector-effect:none;fill:#b68a0e;fill-opacity:1;fill-rule:nonzero;stroke:none;stroke-width:2.1142;stroke-linecap:round;stroke-linejoin:miter;stroke-miterlimit:4;stroke-dasharray:none;stroke-dashoffset:0;stroke-opacity:1;color-rendering:auto;image-rendering:auto;shape-rendering:auto;text-rendering:auto;enable-background:accumulate"
       d="m 335.59638,283.14631 c -8.27176,0 -15.00067,6.7277 -15.00067,14.99944 0,8.27176 6.72891,15.00065 15.00067,15.00065 8.27177,0 14.99949,-6.72889 14.99949,-15.00065 0,-8.27174 -6.72772,-14.99944 -14.99949,-14.99944 z m 0,2.11433 c 7.12917,0 12.88515,5.75597 12.88515,12.88511 0,7.12916 -5.75598,12.88632 -12.88515,12.88632 -7.12915,0 -12.88633,-5.75716 -12.88633,-12.88632 0,-7.12914 5.75718,-12.88511 12.88633,-12.88511 z"
       id="path13925-6"
       inkscape:connector-curvature="0" />
    <path
       id="path1389-0-9"
       style="color:#000000;font-style:normal;font-variant:normal;font-weight:normal;font-stretch:normal;font-size:medium;line-height:normal;font-family:sans-serif;font-variant-ligatures:normal;font-variant-position:normal;font-variant-caps:normal;font-variant-numeric:normal;font-variant-alternates:normal;font-variant-east-asian:normal;font-feature-settings:normal;font-variation-settings:normal;text-indent:0;text-align:start;text-decoration:none;text-decoration-line:none;text-decoration-style:solid;text-decoration-color:#000000;letter-spacing:normal;word-spacing:normal;text-transform:none;writing-mode:lr-tb;direction:ltr;text-orientation:mixed;dominant-baseline:auto;baseline-shift:baseline;text-anchor:start;white-space:normal;shape-padding:0;shape-margin:0;inline-size:0;clip-rule:nonzero;display:inline;overflow:visible;visibility:visible;isolation:auto;mix-blend-mode:normal;color-interpolation:sRGB;color-interpolation-filters:linearRGB;solid-color:#000000;solid-opacity:1;vector-effect:none;fill:#c8102e;fill-opacity:1;fill-rule:nonzero;stroke:none;stroke-width:5.1543;stroke-linecap:butt;stroke-linejoin:miter;stroke-miterlimit:4;stroke-dasharray:none;stroke-dashoffset:0;stroke-opacity:1;color-rendering:auto;image-rendering:auto;shape-rendering:auto;text-rendering:auto;enable-background:accumulate;stop-color:#000000"
       d="m 335.61343,285.26064 c -0.88364,0 -1.74499,0.0893 -2.57812,0.2578 v 10.05078 h -10.05078 c -0.1683,0.8325 -0.25781,1.69319 -0.25781,2.57616 0,0.88363 0.0893,1.74501 0.25781,2.57813 h 10.05078 v 10.05077 c 0.83313,0.16855 1.69449,0.25781 2.57812,0.25781 0.88295,0 1.74369,-0.0895 2.57618,-0.25781 v -10.05077 h 10.05078 c 0.1685,-0.83312 0.25781,-1.6945 0.25781,-2.57813 0,-0.88297 -0.0896,-1.74366 -0.25781,-2.57616 h -10.05078 v -10.05078 c -0.8325,-0.16824 -1.69323,-0.2578 -2.57618,-0.2578 z m 10.75587,5.7871 -5.62304,2.8164 h 3.41991 l 2.96289,-1.48438 c -0.22973,-0.45904 -0.47885,-0.90645 -0.75976,-1.33202 z m -22.28712,1.36131 c -0.22722,0.45684 -0.42696,0.92821 -0.5996,1.41408 l 0.084,0.041 h 3.43945 z m 2.97658,10.02149 -2.96094,1.48241 c 0.2303,0.45981 0.4781,0.90778 0.75977,1.33398 l 5.62304,-2.81639 z m 17.16211,0 2.92188,1.45312 c 0.22701,-0.45629 0.42704,-0.92685 0.59961,-1.41211 l -0.084,-0.041 z" />
  </g>
</svg>
