<?xml version="1.0" encoding="UTF-8" standalone="no"?>
<!-- Created with Inkscape (http://www.inkscape.org/) -->

<svg
   xmlns:dc="http://purl.org/dc/elements/1.1/"
   xmlns:cc="http://creativecommons.org/ns#"
   xmlns:rdf="http://www.w3.org/1999/02/22-rdf-syntax-ns#"
   xmlns:svg="http://www.w3.org/2000/svg"
   xmlns="http://www.w3.org/2000/svg"
   xmlns:sodipodi="http://sodipodi.sourceforge.net/DTD/sodipodi-0.dtd"
   xmlns:inkscape="http://www.inkscape.org/namespaces/inkscape"
   width="50"
   height="50"
   id="svg2"
   version="1.1"
   inkscape:version="0.92.3 (2405546, 2018-03-11)"
   sodipodi:docname="button-trash.svg">
  <defs
     id="defs4" />
  <sodipodi:namedview
     id="base"
     pagecolor="#ffffff"
     bordercolor="#666666"
     borderopacity="1.0"
     inkscape:pageopacity="0.0"
     inkscape:pageshadow="2"
     inkscape:zoom="5.6568542"
     inkscape:cx="12.259861"
     inkscape:cy="30.51014"
     inkscape:document-units="px"
     inkscape:current-layer="layer1"
     showgrid="false"
     inkscape:window-width="1920"
     inkscape:window-height="1018"
     inkscape:window-x="-8"
     inkscape:window-y="-8"
     inkscape:window-maximized="1"
     fit-margin-top="0"
     fit-margin-left="0"
     fit-margin-right="0"
     fit-margin-bottom="0"
     units="px"
     inkscape:snap-bbox="true"
     inkscape:bbox-paths="true"
     inkscape:bbox-nodes="true"
     inkscape:snap-page="true"
     inkscape:snap-bbox-edge-midpoints="true"
     inkscape:snap-smooth-nodes="true"
     inkscape:snap-bbox-midpoints="true"
     inkscape:object-paths="true"
     inkscape:snap-intersection-paths="true" />
  <metadata
     id="metadata7">
    <rdf:RDF>
      <cc:Work
         rdf:about="">
        <dc:format>image/svg+xml</dc:format>
        <dc:type
           rdf:resource="http://purl.org/dc/dcmitype/StillImage" />
        <dc:title></dc:title>
      </cc:Work>
    </rdf:RDF>
  </metadata>
  <g
     inkscape:label="Ebene 1"
     inkscape:groupmode="layer"
     id="layer1"
     transform="translate(-320.59587,-263.1464)">
    <path
       style="opacity:1;fill:#b68a0e;fill-opacity:1;stroke:none;stroke-width:5.61128378;stroke-linecap:round;stroke-linejoin:miter;stroke-miterlimit:4;stroke-dasharray:none;stroke-opacity:1"
       d="m 333.11069,274.77144 4.48903,30.02037 h 7.99608 7.99608 l 4.48903,-30.02037 H 345.5958 Z m 2.29713,2.08669 h 5.29565 l 0.23453,3.66706 h -4.98221 z m 6.48805,0 h 3.69993 3.69995 l -0.23673,3.66706 h -3.46322 -3.46321 z m 8.59227,0 h 5.29565 l -0.54797,3.66706 h -4.98222 z m -14.35481,4.85946 h 4.88138 l 0.29153,4.55259 h -4.49121 z m 6.07598,0 h 3.38649 3.3865 l -0.29152,4.55259 h -3.09498 -3.09497 z m 7.96758,0 h 4.88138 l -0.68169,4.55259 h -4.49121 z m -13.18432,5.74499 h 4.39039 l 0.29152,4.55041 h -4.00023 z m 5.58498,0 h 3.01825 3.01826 l -0.29152,4.55041 h -2.72674 -2.72672 z m 7.2311,0 h 4.39039 l -0.68168,4.55041 h -4.00024 z m -11.95686,5.7428 h 3.89941 l 0.29152,4.55041 h -3.51144 z m 5.094,0 h 2.65001 2.65002 l -0.29152,4.55041 h -2.3585 -2.35849 z m 6.49463,0 h 3.89939 l -0.67948,4.55041 h -3.51144 z m -10.7294,5.7428 h 3.40842 l 0.24111,3.75693 h -3.0884 z m 4.60301,0 h 2.28177 2.28178 l -0.24111,3.75693 h -2.04067 -2.04067 z m 5.75814,0 h 3.40842 l -0.56113,3.75693 h -3.0884 z"
       id="path9494-9"
       inkscape:connector-curvature="0" />
    <path
       style="color:#000000;font-style:normal;font-variant:normal;font-weight:normal;font-stretch:normal;font-size:medium;line-height:normal;font-family:sans-serif;font-variant-ligatures:normal;font-variant-position:normal;font-variant-caps:normal;font-variant-numeric:normal;font-variant-alternates:normal;font-feature-settings:normal;text-indent:0;text-align:start;text-decoration:none;text-decoration-line:none;text-decoration-style:solid;text-decoration-color:#000000;letter-spacing:normal;word-spacing:normal;text-transform:none;writing-mode:lr-tb;direction:ltr;text-orientation:mixed;dominant-baseline:auto;baseline-shift:baseline;text-anchor:start;white-space:normal;shape-padding:0;clip-rule:nonzero;display:inline;overflow:visible;visibility:visible;opacity:1;isolation:auto;mix-blend-mode:normal;color-interpolation:sRGB;color-interpolation-filters:linearRGB;solid-color:#000000;solid-opacity:1;vector-effect:none;fill:#b68a0e;fill-opacity:1;fill-rule:nonzero;stroke:none;stroke-width:3.52366376;stroke-linecap:round;stroke-linejoin:miter;stroke-miterlimit:4;stroke-dasharray:none;stroke-dashoffset:0;stroke-opacity:1;color-rendering:auto;image-rendering:auto;shape-rendering:auto;text-rendering:auto;enable-background:accumulate"
       d="m 345.59678,263.1464 c -13.78625,0 -25.00108,11.21282 -25.00108,24.99904 0,13.78623 11.21483,25.00104 25.00108,25.00104 13.78625,0 24.99909,-11.21481 24.99909,-25.00104 0,-13.78622 -11.21284,-24.99904 -24.99909,-24.99904 z m 0,3.52388 c 11.88192,0 21.4752,9.59327 21.4752,21.47516 0,11.88191 -9.59328,21.47716 -21.4752,21.47716 -11.88192,0 -21.47719,-9.59525 -21.47719,-21.47716 0,-11.88189 9.59527,-21.47516 21.47719,-21.47516 z"
       id="path13925"
       inkscape:connector-curvature="0" />
  </g>
</svg>
