<?xml version="1.0" encoding="UTF-8" standalone="no"?>
<svg
   xmlns:dc="http://purl.org/dc/elements/1.1/"
   xmlns:cc="http://creativecommons.org/ns#"
   xmlns:rdf="http://www.w3.org/1999/02/22-rdf-syntax-ns#"
   xmlns:svg="http://www.w3.org/2000/svg"
   xmlns="http://www.w3.org/2000/svg"
   xmlns:sodipodi="http://sodipodi.sourceforge.net/DTD/sodipodi-0.dtd"
   xmlns:inkscape="http://www.inkscape.org/namespaces/inkscape"
   sodipodi:docname="button-gear-red.svg"
   inkscape:version="1.0 (4035a4fb49, 2020-05-01)"
   version="1.1"
   id="svg2"
   height="50"
   width="50">
  <defs
     id="defs4" />
  <sodipodi:namedview
     inkscape:snap-bbox-edge-midpoints="true"
     inkscape:snap-smooth-nodes="false"
     inkscape:snap-intersection-paths="true"
     inkscape:guide-bbox="true"
     showguides="true"
     inkscape:snap-bbox-midpoints="true"
     inkscape:document-rotation="0"
     inkscape:snap-page="true"
     inkscape:bbox-nodes="true"
     inkscape:bbox-paths="true"
     inkscape:snap-bbox="true"
     units="px"
     fit-margin-bottom="0"
     fit-margin-right="0"
     fit-margin-left="0"
     fit-margin-top="0"
     inkscape:window-maximized="1"
     inkscape:window-y="-8"
     inkscape:window-x="-8"
     inkscape:window-height="1018"
     inkscape:window-width="1920"
     showgrid="false"
     inkscape:current-layer="layer1"
     inkscape:document-units="px"
     inkscape:cy="96.712108"
     inkscape:cx="6.614833"
     inkscape:zoom="2.8425693"
     inkscape:pageshadow="2"
     inkscape:pageopacity="0.0"
     borderopacity="1.0"
     bordercolor="#666666"
     pagecolor="#ffffff"
     id="base">
    <sodipodi:guide
       id="guide875"
       orientation="0,-1"
       position="24.999915,24.99996" />
  </sodipodi:namedview>
  <metadata
     id="metadata7">
    <rdf:RDF>
      <cc:Work
         rdf:about="">
        <dc:format>image/svg+xml</dc:format>
        <dc:type
           rdf:resource="http://purl.org/dc/dcmitype/StillImage" />
        <dc:title></dc:title>
      </cc:Work>
    </rdf:RDF>
  </metadata>
  <g
     transform="translate(-320.59587,-263.1464)"
     id="layer1"
     inkscape:groupmode="layer"
     inkscape:label="Ebene 1">
    <path
       inkscape:connector-curvature="0"
       id="path13925"
       d="m 345.59678,263.1464 c -13.78625,0 -25.00108,11.21282 -25.00108,24.99904 0,13.78623 11.21483,25.00104 25.00108,25.00104 13.78625,0 24.99909,-11.21481 24.99909,-25.00104 0,-13.78622 -11.21284,-24.99904 -24.99909,-24.99904 z m 0,3.52388 c 11.88192,0 21.4752,9.59327 21.4752,21.47516 0,11.88191 -9.59328,21.47716 -21.4752,21.47716 -11.88192,0 -21.47719,-9.59525 -21.47719,-21.47716 0,-11.88189 9.59527,-21.47516 21.47719,-21.47516 z"
       style="color:#000000;font-style:normal;font-variant:normal;font-weight:normal;font-stretch:normal;font-size:medium;line-height:normal;font-family:sans-serif;font-variant-ligatures:normal;font-variant-position:normal;font-variant-caps:normal;font-variant-numeric:normal;font-variant-alternates:normal;font-feature-settings:normal;text-indent:0;text-align:start;text-decoration:none;text-decoration-line:none;text-decoration-style:solid;text-decoration-color:#000000;letter-spacing:normal;word-spacing:normal;text-transform:none;writing-mode:lr-tb;direction:ltr;text-orientation:mixed;dominant-baseline:auto;baseline-shift:baseline;text-anchor:start;white-space:normal;shape-padding:0;clip-rule:nonzero;display:inline;overflow:visible;visibility:visible;opacity:1;isolation:auto;mix-blend-mode:normal;color-interpolation:sRGB;color-interpolation-filters:linearRGB;solid-color:#000000;solid-opacity:1;vector-effect:none;fill:#ff0000;fill-opacity:1;fill-rule:nonzero;stroke:none;stroke-width:3.52366376;stroke-linecap:round;stroke-linejoin:miter;stroke-miterlimit:4;stroke-dasharray:none;stroke-dashoffset:0;stroke-opacity:1;color-rendering:auto;image-rendering:auto;shape-rendering:auto;text-rendering:auto;enable-background:accumulate" />
    <path
       d="m 341.0253,271.06343 -0.20899,5.53711 -2.82422,1.63086 -4.9082,-2.58594 -4.57031,7.92383 4.68945,2.94922 v 3.26172 l -4.6875,2.95117 4.57422,7.91992 4.90039,-2.58789 2.82031,1.62891 0.21094,5.53711 9.14258,-0.002 0.21093,-5.53711 2.82422,-1.63086 4.9043,2.59375 4.57422,-7.93164 -4.69336,-2.9414 v -3.26367 l 4.69336,-2.94532 -4.57227,-7.92383 -4.90039,2.58594 -2.81836,-1.6289 -0.21093,-5.53907 z m 4.48437,10.0918 a 6.9910021,6.9910021 0 0 1 0.0859,0 6.9910021,6.9910021 0 0 1 6.99023,6.99218 6.9910021,6.9910021 0 0 1 -6.99023,6.99024 6.9910021,6.9910021 0 0 1 -6.99024,-6.99024 6.9910021,6.9910021 0 0 1 6.9043,-6.99218 z"
       style="fill:#ff0000;fill-opacity:1;fill-rule:evenodd;stroke:none;stroke-width:1px;stroke-linecap:butt;stroke-linejoin:miter;stroke-opacity:1"
       id="path1550" />
  </g>
</svg>
