<?xml version="1.0" encoding="UTF-8" standalone="no"?>
<svg
   xmlns:dc="http://purl.org/dc/elements/1.1/"
   xmlns:cc="http://creativecommons.org/ns#"
   xmlns:rdf="http://www.w3.org/1999/02/22-rdf-syntax-ns#"
   xmlns:svg="http://www.w3.org/2000/svg"
   xmlns="http://www.w3.org/2000/svg"
   xmlns:sodipodi="http://sodipodi.sourceforge.net/DTD/sodipodi-0.dtd"
   xmlns:inkscape="http://www.inkscape.org/namespaces/inkscape"
   sodipodi:docname="button-gear-bearbeitung.svg"
   inkscape:version="1.0 (4035a4fb49, 2020-05-01)"
   version="1.1"
   id="svg2"
   height="50"
   width="50">
  <defs
     id="defs4" />
  <sodipodi:namedview
     inkscape:snap-bbox-edge-midpoints="true"
     inkscape:snap-smooth-nodes="false"
     inkscape:snap-intersection-paths="true"
     inkscape:guide-bbox="true"
     showguides="true"
     inkscape:snap-bbox-midpoints="true"
     inkscape:document-rotation="0"
     inkscape:snap-page="true"
     inkscape:bbox-nodes="true"
     inkscape:bbox-paths="true"
     inkscape:snap-bbox="true"
     units="px"
     fit-margin-bottom="0"
     fit-margin-right="0"
     fit-margin-left="0"
     fit-margin-top="0"
     inkscape:window-maximized="1"
     inkscape:window-y="-8"
     inkscape:window-x="-8"
     inkscape:window-height="1018"
     inkscape:window-width="1920"
     showgrid="false"
     inkscape:current-layer="layer1"
     inkscape:document-units="px"
     inkscape:cy="-33.417751"
     inkscape:cx="-21.895231"
     inkscape:zoom="5.6851385"
     inkscape:pageshadow="2"
     inkscape:pageopacity="0.0"
     borderopacity="1.0"
     bordercolor="#666666"
     pagecolor="#ffffff"
     id="base">
    <sodipodi:guide
       id="guide873"
       orientation="1,0"
       position="24.999925,24.999946" />
    <sodipodi:guide
       id="guide875"
       orientation="0,-1"
       position="24.999915,24.99996" />
  </sodipodi:namedview>
  <metadata
     id="metadata7">
    <rdf:RDF>
      <cc:Work
         rdf:about="">
        <dc:format>image/svg+xml</dc:format>
        <dc:type
           rdf:resource="http://purl.org/dc/dcmitype/StillImage" />
        <dc:title></dc:title>
      </cc:Work>
    </rdf:RDF>
  </metadata>
  <g
     transform="translate(-320.59587,-263.1464)"
     id="layer1"
     inkscape:groupmode="layer"
     inkscape:label="Ebene 1">
    <path
       inkscape:connector-curvature="0"
       id="path13925"
       d="m 345.59678,263.1464 c -13.78625,0 -25.00108,11.21282 -25.00108,24.99904 0,13.78623 11.21483,25.00104 25.00108,25.00104 13.78625,0 24.99909,-11.21481 24.99909,-25.00104 0,-13.78622 -11.21284,-24.99904 -24.99909,-24.99904 z m 0,3.52388 c 11.88192,0 21.4752,9.59327 21.4752,21.47516 0,11.88191 -9.59328,21.47716 -21.4752,21.47716 -11.88192,0 -21.47719,-9.59525 -21.47719,-21.47716 0,-11.88189 9.59527,-21.47516 21.47719,-21.47516 z"
       style="color:#000000;font-style:normal;font-variant:normal;font-weight:normal;font-stretch:normal;font-size:medium;line-height:normal;font-family:sans-serif;font-variant-ligatures:normal;font-variant-position:normal;font-variant-caps:normal;font-variant-numeric:normal;font-variant-alternates:normal;font-feature-settings:normal;text-indent:0;text-align:start;text-decoration:none;text-decoration-line:none;text-decoration-style:solid;text-decoration-color:#000000;letter-spacing:normal;word-spacing:normal;text-transform:none;writing-mode:lr-tb;direction:ltr;text-orientation:mixed;dominant-baseline:auto;baseline-shift:baseline;text-anchor:start;white-space:normal;shape-padding:0;clip-rule:nonzero;display:inline;overflow:visible;visibility:visible;opacity:1;isolation:auto;mix-blend-mode:normal;color-interpolation:sRGB;color-interpolation-filters:linearRGB;solid-color:#000000;solid-opacity:1;vector-effect:none;fill:#b68a0e;fill-opacity:1;fill-rule:nonzero;stroke:none;stroke-width:3.52366376;stroke-linecap:round;stroke-linejoin:miter;stroke-miterlimit:4;stroke-dasharray:none;stroke-dashoffset:0;stroke-opacity:1;color-rendering:auto;image-rendering:auto;shape-rendering:auto;text-rendering:auto;enable-background:accumulate" />
    <circle
       r="17.687519"
       cy="288.14645"
       cx="345.59579"
       id="path871"
       style="fill:none;stroke-width:0.412976;stroke-linecap:round;stroke:#000000;stroke-opacity:1" />
    <circle
       style="fill:none;stroke:#000000;stroke-width:0.29181;stroke-linecap:round;stroke-opacity:1"
       id="path871-7"
       cx="345.59579"
       cy="288.14645"
       r="12.498072" />
    <path
       id="path892"
       d="m 305.0333,288.14644 h 81.125"
       style="fill:none;fill-rule:evenodd;stroke:#000000;stroke-width:1px;stroke-linecap:butt;stroke-linejoin:miter;stroke-opacity:1" />
    <path
       style="fill:none;fill-rule:evenodd;stroke:#000000;stroke-width:1px;stroke-linecap:butt;stroke-linejoin:miter;stroke-opacity:1"
       d="m 345.59579,328.70894 v -81.125"
       id="path892-5" />
    <path
       id="path892-5-1"
       d="m 335.09744,327.32681 20.9967,-78.36074"
       style="fill:none;fill-rule:evenodd;stroke:#000000;stroke-width:1px;stroke-linecap:butt;stroke-linejoin:miter;stroke-opacity:1" />
    <path
       style="fill:none;fill-rule:evenodd;stroke:#000000;stroke-width:1px;stroke-linecap:butt;stroke-linejoin:miter;stroke-opacity:1"
       d="m 384.77616,298.64479 -78.36074,-20.9967"
       id="path892-5-1-0" />
    <path
       id="path892-5-1-0-9"
       d="m 335.09744,248.96607 20.9967,78.36074"
       style="fill:none;fill-rule:evenodd;stroke:#000000;stroke-width:1px;stroke-linecap:butt;stroke-linejoin:miter;stroke-opacity:1" />
    <path
       id="path892-5-1-0-1"
       d="m 384.77616,277.6481 -78.36074,20.9967"
       style="fill:none;fill-rule:evenodd;stroke:#000000;stroke-width:1px;stroke-linecap:butt;stroke-linejoin:miter;stroke-opacity:1" />
    <path
       id="path892-9-9"
       d="m 310.46763,308.42769 70.25632,-40.5625"
       style="fill:none;fill-rule:evenodd;stroke:#000000;stroke-width:1px;stroke-linecap:butt;stroke-linejoin:miter;stroke-opacity:1" />
    <path
       style="fill:none;fill-rule:evenodd;stroke:#000000;stroke-width:1px;stroke-linecap:butt;stroke-linejoin:miter;stroke-opacity:1"
       d="m 325.31455,253.01828 40.5625,70.25632"
       id="path892-0" />
    <path
       id="path892-0-7"
       d="m 316.91377,259.46442 57.36404,57.36404"
       style="fill:none;fill-rule:evenodd;stroke:#000000;stroke-width:1px;stroke-linecap:butt;stroke-linejoin:miter;stroke-opacity:1" />
    <path
       id="path892-0-1"
       d="m 310.46763,267.86519 70.25632,40.5625"
       style="fill:none;fill-rule:evenodd;stroke:#000000;stroke-width:1px;stroke-linecap:butt;stroke-linejoin:miter;stroke-opacity:1" />
    <path
       style="fill:none;fill-rule:evenodd;stroke:#000000;stroke-width:1px;stroke-linecap:butt;stroke-linejoin:miter;stroke-opacity:1"
       d="m 316.91377,316.82846 57.36404,-57.36404"
       id="path892-9-9-0" />
    <path
       id="path892-9-9-0-7"
       d="m 325.31454,323.2746 40.5625,-70.25632"
       style="fill:none;fill-rule:evenodd;stroke:#000000;stroke-width:1px;stroke-linecap:butt;stroke-linejoin:miter;stroke-opacity:1" />
    <path
       style="color:#000000;font-style:normal;font-variant:normal;font-weight:normal;font-stretch:normal;font-size:medium;line-height:normal;font-family:sans-serif;font-variant-ligatures:normal;font-variant-position:normal;font-variant-caps:normal;font-variant-numeric:normal;font-variant-alternates:normal;font-feature-settings:normal;text-indent:0;text-align:start;text-decoration:none;text-decoration-line:none;text-decoration-style:solid;text-decoration-color:#000000;letter-spacing:normal;word-spacing:normal;text-transform:none;writing-mode:lr-tb;direction:ltr;text-orientation:mixed;dominant-baseline:auto;baseline-shift:baseline;text-anchor:start;white-space:normal;shape-padding:0;clip-rule:nonzero;display:inline;overflow:visible;visibility:visible;opacity:1;isolation:auto;mix-blend-mode:normal;color-interpolation:sRGB;color-interpolation-filters:linearRGB;solid-color:#000000;solid-opacity:1;vector-effect:none;fill:#b68a0e;fill-opacity:1;fill-rule:nonzero;stroke:#ee3d3d;stroke-width:3.52366;stroke-linecap:round;stroke-linejoin:miter;stroke-miterlimit:4;stroke-dasharray:none;stroke-dashoffset:0;stroke-opacity:1;color-rendering:auto;image-rendering:auto;shape-rendering:auto;text-rendering:auto;enable-background:accumulate"
       d="m 443.26796,234.11083 c -13.78625,0 -25.00108,11.21282 -25.00108,24.99904 0,13.78623 11.21483,25.00104 25.00108,25.00104 13.78625,0 24.99909,-11.21481 24.99909,-25.00104 0,-13.78622 -11.21284,-24.99904 -24.99909,-24.99904 z m 0,3.52388 c 11.88192,0 21.4752,9.59327 21.4752,21.47516 0,11.88191 -9.59328,21.47716 -21.4752,21.47716 -11.88192,0 -21.47719,-9.59525 -21.47719,-21.47716 0,-11.88189 9.59527,-21.47516 21.47719,-21.47516 z"
       id="path13925-6"
       inkscape:connector-curvature="0" />
    <circle
       style="fill:none;stroke:#ee3d3d;stroke-width:0.412976;stroke-linecap:round;stroke-opacity:1"
       id="path871-2"
       cx="443.26697"
       cy="259.1109"
       r="17.687519" />
    <circle
       r="12.498072"
       cy="259.1109"
       cx="443.26697"
       id="path871-7-8"
       style="fill:none;stroke:#ee3d3d;stroke-width:0.29181;stroke-linecap:round;stroke-opacity:1" />
    <path
       style="fill:none;fill-rule:evenodd;stroke:#ee3d3d;stroke-width:1px;stroke-linecap:butt;stroke-linejoin:miter;stroke-opacity:1"
       d="m 402.70448,259.11087 h 81.125"
       id="path892-7" />
    <path
       id="path892-5-4"
       d="m 443.26697,299.67337 v -81.125"
       style="fill:none;fill-rule:evenodd;stroke:#ee3d3d;stroke-width:1px;stroke-linecap:butt;stroke-linejoin:miter;stroke-opacity:1" />
    <path
       style="fill:none;fill-rule:evenodd;stroke:#ee3d3d;stroke-width:1px;stroke-linecap:butt;stroke-linejoin:miter;stroke-opacity:1"
       d="m 432.76862,298.29124 20.9967,-78.36074"
       id="path892-5-1-2" />
    <path
       id="path892-5-1-0-4"
       d="M 482.44734,269.60922 404.0866,248.61252"
       style="fill:none;fill-rule:evenodd;stroke:#ee3d3d;stroke-width:1px;stroke-linecap:butt;stroke-linejoin:miter;stroke-opacity:1" />
    <path
       style="fill:none;fill-rule:evenodd;stroke:#ee3d3d;stroke-width:1px;stroke-linecap:butt;stroke-linejoin:miter;stroke-opacity:1"
       d="m 432.76862,219.9305 20.9967,78.36074"
       id="path892-5-1-0-9-8" />
    <path
       style="fill:none;fill-rule:evenodd;stroke:#ee3d3d;stroke-width:1px;stroke-linecap:butt;stroke-linejoin:miter;stroke-opacity:1"
       d="m 482.44734,248.61253 -78.36074,20.9967"
       id="path892-5-1-0-1-7" />
    <path
       style="fill:none;fill-rule:evenodd;stroke:#ee3d3d;stroke-width:1px;stroke-linecap:butt;stroke-linejoin:miter;stroke-opacity:1"
       d="m 408.13881,279.39212 70.25632,-40.5625"
       id="path892-9-9-08" />
    <path
       id="path892-0-76"
       d="m 422.98573,223.98271 40.5625,70.25632"
       style="fill:none;fill-rule:evenodd;stroke:#ee3d3d;stroke-width:1px;stroke-linecap:butt;stroke-linejoin:miter;stroke-opacity:1" />
    <path
       style="fill:none;fill-rule:evenodd;stroke:#ee3d3d;stroke-width:1px;stroke-linecap:butt;stroke-linejoin:miter;stroke-opacity:1"
       d="m 414.58495,230.42885 57.36404,57.36404"
       id="path892-0-7-9" />
    <path
       style="fill:none;fill-rule:evenodd;stroke:#ee3d3d;stroke-width:1px;stroke-linecap:butt;stroke-linejoin:miter;stroke-opacity:1"
       d="m 408.13881,238.82962 70.25632,40.5625"
       id="path892-0-1-5" />
    <path
       id="path892-9-9-0-8"
       d="m 414.58495,287.79289 57.36404,-57.36404"
       style="fill:none;fill-rule:evenodd;stroke:#ee3d3d;stroke-width:1px;stroke-linecap:butt;stroke-linejoin:miter;stroke-opacity:1" />
    <path
       style="fill:none;fill-rule:evenodd;stroke:#ee3d3d;stroke-width:1px;stroke-linecap:butt;stroke-linejoin:miter;stroke-opacity:1"
       d="m 422.98572,294.23903 40.5625,-70.25632"
       id="path892-9-9-0-7-3" />
    <path
       transform="translate(320.59587,263.1464)"
       d="M 118.37685 -172.80487 A 17.687519 17.687519 0 0 1 122.47035 -173.28508 A 17.687519 17.687519 0 0 1 127.46491 -172.56525 A 17.687519 17.687519 0 0 1 140.15787 -155.59756 A 17.687519 17.687519 0 0 1 122.47035 -137.91004 A 17.687519 17.687519 0 0 1 104.78283 -155.59756 A 17.687519 17.687519 0 0 1 118.37685 -172.80487 "
       style="fill:none;stroke:#ee3d3d;stroke-width:0.412976;stroke-linecap:round;stroke-opacity:1"
       id="path871-2-5" />
    <path
       style="fill:none;fill-rule:evenodd;stroke:#000000;stroke-width:1px;stroke-linecap:butt;stroke-linejoin:miter;stroke-opacity:1"
       d="m 438.48836,90.464011 4.57785,17.084769"
       id="path1238-9"
       sodipodi:nodetypes="cc" />
    <path
       sodipodi:nodetypes="cc"
       id="path1238-8-3"
       d="m 447.64408,90.464011 -4.57786,17.084799"
       style="fill:none;fill-rule:evenodd;stroke:#000000;stroke-width:1px;stroke-linecap:butt;stroke-linejoin:miter;stroke-opacity:1" />
    <path
       id="path1297"
       d="m 438.68911,242.02607 h 9.15572 l 7.92909,4.57785 4.57787,7.9291 2e-5,9.15572 -4.57786,7.92911 -7.92911,4.57788 h -9.15574 l -7.92911,-4.57788 -4.57786,-7.9291 1e-5,-9.15574 4.57788,-7.92909 7.92909,-4.57785"
       style="fill:none;fill-rule:evenodd;stroke:#000000;stroke-width:1px;stroke-linecap:butt;stroke-linejoin:miter;stroke-opacity:1" />
    <path
       id="path1366"
       d="m 441.63565,246.71975 -3.15147,0.84443"
       style="fill:none;fill-rule:evenodd;stroke:#000000;stroke-width:1px;stroke-linecap:butt;stroke-linejoin:miter;stroke-opacity:1" />
    <path
       id="path1362"
       d="m 435.65864,249.19549 -2.30705,2.30704"
       style="fill:none;fill-rule:evenodd;stroke:#000000;stroke-width:1px;stroke-linecap:butt;stroke-linejoin:miter;stroke-opacity:1" />
    <path
       id="path1360"
       d="m 433.35561,251.4973 -1.63535,2.83076"
       style="fill:none;fill-rule:evenodd;stroke:#000000;stroke-width:1px;stroke-linecap:butt;stroke-linejoin:miter;stroke-opacity:1" />
    <path
       id="path1358"
       d="m 444.89832,271.50202 3.15147,-0.84443"
       style="fill:none;fill-rule:evenodd;stroke:#000000;stroke-width:1px;stroke-linecap:butt;stroke-linejoin:miter;stroke-opacity:1" />
    <path
       id="path1356"
       d="m 448.04979,270.65759 2.82554,-1.63131"
       style="fill:none;fill-rule:evenodd;stroke:#000000;stroke-width:1px;stroke-linecap:butt;stroke-linejoin:miter;stroke-opacity:1" />
    <path
       id="path1354"
       d="m 450.87533,269.02628 2.30705,-2.30704"
       style="fill:none;fill-rule:evenodd;stroke:#000000;stroke-width:1px;stroke-linecap:butt;stroke-linejoin:miter;stroke-opacity:1" />
    <path
       id="path1321-6"
       d="m 453.17836,266.72447 1.63535,-2.83076"
       style="fill:none;fill-rule:evenodd;stroke:#000000;stroke-width:1px;stroke-linecap:butt;stroke-linejoin:miter;stroke-opacity:1" />
    <path
       d="m 447.8405,242.02491 -9.15558,0.002 m -7.9249,4.57701 4.90389,2.58754 m 3.02953,-7.16655 -0.20926,5.53927 m 0,0 -2.82554,1.63131"
       style="fill:none;fill-rule:evenodd;stroke:#000000;stroke-width:1px;stroke-linecap:butt;stroke-linejoin:miter;stroke-opacity:1"
       id="path1372" />
    <path
       id="path1372-1"
       style="fill:#71c837;fill-rule:evenodd;stroke:#2823c6;stroke-width:1px;stroke-linecap:butt;stroke-linejoin:miter;stroke-opacity:1"
       d="m 350.17365,271.06162 -9.15557,0.002 m -7.9249,4.57701 4.90389,2.58754 m 3.02953,-7.16655 -0.20926,5.53927 m 0,0 -2.82554,1.63131" />
    <path
       d="m 341.01792,305.23128 9.15556,-0.002 m 7.9249,-4.57701 -4.90389,-2.58754 m -3.02953,7.16655 0.20926,-5.53927 m 0,0 2.82554,-1.63131"
       style="fill:#71c837;fill-rule:evenodd;stroke:#2823c6;stroke-width:1px;stroke-linecap:butt;stroke-linejoin:miter;stroke-opacity:1"
       id="path1372-1-7" />
    <path
       id="path1372-1-7-6"
       style="fill:#71c837;fill-rule:evenodd;stroke:#2823c6;stroke-width:1px;stroke-linecap:butt;stroke-linejoin:miter;stroke-opacity:1"
       d="m 358.10276,300.65341 4.57605,-7.92994 m -10e-4,-9.15167 -4.69282,2.95312 m 4.69165,6.20693 -4.69252,-2.95086 m 0,0 10e-6,-3.26265" />
    <path
       d="m 362.68063,283.56858 -4.5795,-7.92794 m -7.92608,-4.57497 0.21107,5.54066 m 7.72118,-0.95963 -4.90178,2.58842 m 0,0 -2.82553,-1.63134"
       style="fill:#71c837;fill-rule:evenodd;stroke:#2823c6;stroke-width:1px;stroke-linecap:butt;stroke-linejoin:miter;stroke-opacity:1"
       id="path1372-1-7-6-2" />
    <path
       d="m 333.08485,275.64702 -4.57605,7.92994 m 10e-4,9.15167 4.69282,-2.95312 m -4.69165,-6.20693 4.69252,2.95086 m 0,0 -10e-6,3.26265"
       style="fill:#71c837;fill-rule:evenodd;stroke:#2823c6;stroke-width:1px;stroke-linecap:butt;stroke-linejoin:miter;stroke-opacity:1"
       id="path1372-1-0" />
    <path
       id="path1372-1-0-7"
       style="fill:#71c837;fill-rule:evenodd;stroke:#2823c6;stroke-width:1px;stroke-linecap:butt;stroke-linejoin:miter;stroke-opacity:1"
       d="m 328.51549,292.73153 4.5795,7.92794 m 7.92608,4.57497 -0.21107,-5.54066 m -7.72118,0.95963 4.90178,-2.58842 m 0,0 2.82553,1.63134" />
    <circle
       r="6.9910021"
       cy="287.64645"
       cx="345.59579"
       id="path1465"
       style="fill:#71c837;stroke:#2823c6;stroke-width:0.377953;stroke-linecap:round;stroke-opacity:1" />
    <circle
       style="fill:none;stroke:#000000;stroke-width:0.412976;stroke-linecap:round;stroke-opacity:1"
       id="path871-5"
       cx="334.77496"
       cy="208.42003"
       r="17.687519" />
    <circle
       r="12.498072"
       cy="208.42003"
       cx="334.77496"
       id="path871-7-85"
       style="fill:none;stroke:#000000;stroke-width:0.29181;stroke-linecap:round;stroke-opacity:1" />
    <path
       d="m 339.35284,191.3352 -9.15557,0.002 m -7.9249,4.57701 4.90389,2.58754 m 3.02953,-7.16655 -0.20926,5.53927 m 0,0 -2.82554,1.63131"
       style="fill:#71c837;fill-rule:evenodd;stroke:#2823c6;stroke-width:1px;stroke-linecap:butt;stroke-linejoin:miter;stroke-opacity:1"
       id="path1372-1-4" />
    <path
       id="path1372-1-7-4"
       style="fill:#71c837;fill-rule:evenodd;stroke:#2823c6;stroke-width:1px;stroke-linecap:butt;stroke-linejoin:miter;stroke-opacity:1"
       d="m 330.19711,225.50486 9.15556,-0.002 m 7.9249,-4.57701 -4.90389,-2.58754 m -3.02953,7.16655 0.20926,-5.53927 m 0,0 2.82554,-1.63131" />
    <path
       d="m 347.28195,220.92699 4.57605,-7.92994 m -10e-4,-9.15167 -4.69282,2.95312 m 4.69165,6.20693 -4.69252,-2.95086 m 0,0 10e-6,-3.26265"
       style="fill:#71c837;fill-rule:evenodd;stroke:#2823c6;stroke-width:1px;stroke-linecap:butt;stroke-linejoin:miter;stroke-opacity:1"
       id="path1372-1-7-6-27" />
    <path
       id="path1372-1-7-6-2-6"
       style="fill:#71c837;fill-rule:evenodd;stroke:#2823c6;stroke-width:1px;stroke-linecap:butt;stroke-linejoin:miter;stroke-opacity:1"
       d="m 351.85982,203.84216 -4.5795,-7.92794 m -7.92608,-4.57497 0.21107,5.54066 m 7.72118,-0.95963 -4.90178,2.58842 m 0,0 -2.82553,-1.63134" />
    <path
       id="path1372-1-0-3"
       style="fill:#71c837;fill-rule:evenodd;stroke:#2823c6;stroke-width:1px;stroke-linecap:butt;stroke-linejoin:miter;stroke-opacity:1"
       d="m 322.26404,195.9206 -4.57605,7.92994 m 10e-4,9.15167 4.69282,-2.95312 m -4.69165,-6.20693 4.69252,2.95086 m 0,0 -10e-6,3.26265" />
    <path
       d="m 317.69468,213.00511 4.5795,7.92794 m 7.92608,4.57497 -0.21107,-5.54066 m -7.72118,0.95963 4.90178,-2.58842 m 0,0 2.82553,1.63134"
       style="fill:#71c837;fill-rule:evenodd;stroke:#2823c6;stroke-width:1px;stroke-linecap:butt;stroke-linejoin:miter;stroke-opacity:1"
       id="path1372-1-0-7-3" />
    <circle
       style="fill:#71c837;stroke:#2823c6;stroke-width:0.377953;stroke-linecap:round;stroke-opacity:1"
       id="path1465-8"
       cx="334.77496"
       cy="207.92003"
       r="6.9910021" />
  </g>
</svg>
