<?xml version="1.0" encoding="UTF-8" standalone="no"?>
<!-- Created with Inkscape (http://www.inkscape.org/) -->

<svg
   xmlns:dc="http://purl.org/dc/elements/1.1/"
   xmlns:cc="http://creativecommons.org/ns#"
   xmlns:rdf="http://www.w3.org/1999/02/22-rdf-syntax-ns#"
   xmlns:svg="http://www.w3.org/2000/svg"
   xmlns="http://www.w3.org/2000/svg"
   xmlns:sodipodi="http://sodipodi.sourceforge.net/DTD/sodipodi-0.dtd"
   xmlns:inkscape="http://www.inkscape.org/namespaces/inkscape"
   width="238.5481"
   height="50"
   id="svg2"
   version="1.1"
   inkscape:version="0.92.3 (2405546, 2018-03-11)"
   sodipodi:docname="rf-logo-intranet.svg">
  <defs
     id="defs4" />
  <sodipodi:namedview
     id="base"
     pagecolor="#ffffff"
     bordercolor="#666666"
     borderopacity="1.0"
     inkscape:pageopacity="0.0"
     inkscape:pageshadow="2"
     inkscape:zoom="1.4142136"
     inkscape:cx="-94.112664"
     inkscape:cy="-51.317719"
     inkscape:document-units="px"
     inkscape:current-layer="layer1"
     showgrid="false"
     inkscape:window-width="1920"
     inkscape:window-height="1017"
     inkscape:window-x="-8"
     inkscape:window-y="-8"
     inkscape:window-maximized="1"
     fit-margin-top="0"
     fit-margin-left="0"
     fit-margin-right="0"
     fit-margin-bottom="0"
     units="px"
     inkscape:snap-page="true" />
  <metadata
     id="metadata7">
    <rdf:RDF>
      <cc:Work
         rdf:about="">
        <dc:format>image/svg+xml</dc:format>
        <dc:type
           rdf:resource="http://purl.org/dc/dcmitype/StillImage" />
        <dc:title></dc:title>
      </cc:Work>
    </rdf:RDF>
  </metadata>
  <g
     inkscape:label="Ebene 1"
     inkscape:groupmode="layer"
     id="layer1"
     transform="translate(-165.52131,-368.64641)">
    <path
       style="fill:#1d7852;fill-opacity:1;fill-rule:evenodd;stroke:none;stroke-width:1.01865876"
       d="m 170.88134,368.64641 -1.61537,0.29305 -1.46812,0.73478 -1.10146,1.10146 -0.7348,1.39451 -0.29302,1.68898 -0.14726,39.57445 0.29451,1.61538 0.73332,1.46811 1.10147,1.10145 1.46812,0.73481 1.61537,0.29302 h 63.36476 0.21941 54.33368 l 1.68753,-0.29302 1.39597,-0.73481 1.10145,-1.10145 0.73334,-1.46811 0.2945,-1.61538 v -39.50082 l -0.2945,-1.61537 -0.73334,-1.39597 -1.10145,-1.10145 -1.39597,-0.73334 -1.68753,-0.2945 -54.92122,0.0736 -62.84939,-0.21941 z m 63.8772,1.54175 h 53.89341 l 1.90842,0.51392 1.39449,1.3945 0.5139,1.83624 v 39.50082 l -0.5139,1.90988 -1.39449,1.3945 -1.90842,0.51392 h -53.74614 l -0.51392,-0.88058 -0.44029,-0.95568 -0.58754,-1.10145 -0.51391,-1.24725 -0.51391,-1.32233 -0.58755,-1.39449 -0.51391,-1.54175 -0.51392,-1.54175 -0.4403,-1.61538 -0.44028,-1.689 -0.29451,-1.76263 -0.29304,-1.76114 1.39451,-0.0736 1.46812,-0.14726 1.46959,-0.0736 1.39448,-0.0736 1.46813,-0.0736 1.39595,-0.0721 1.46812,-0.0735 1.46813,-0.0736 h 1.3945 l 1.46959,-0.0736 1.39449,-0.0737 1.46811,-0.0736 h 1.46813 l 1.39596,-0.0736 h 1.46813 1.39449 1.4696 l 1.46812,-0.0722 h 1.39449 1.46811 1.46959 0.6597 0.80842 l 1.02784,0.0722 h 1.17508 1.24724 1.39596 1.46813 l 1.54175,0.0736 h 1.689 l 1.689,0.0736 1.68899,0.0737 h 1.76115 l 1.68902,0.0736 h 1.76263 l 1.68899,0.0736 1.68752,0.0735 1.61538,0.0721 h 1.54174 l 1.4696,0.0736 1.32086,0.0736 h 1.32234 l 1.10147,0.0736 v -0.0736 l -1.10147,-0.0736 -1.17508,-0.0736 -1.1751,-0.1458 -1.17508,-0.0736 h -1.24723 l -1.32233,-0.0736 -1.24871,-0.14726 -1.32087,-0.0737 h -1.39449 l -1.32234,-0.0721 -1.46811,-0.0736 -1.39597,-0.0736 -1.54177,-0.0737 -1.46811,-0.0736 h -1.46812 l -1.54175,-0.0736 h -1.61537 l -1.54176,-0.0736 -1.61537,-0.0736 h -1.61536 -1.689 l -1.689,-0.0722 h -1.68901 -1.68753 -1.76262 -1.46812 -1.54175 -1.46958 -1.54175 l -1.46813,0.0722 h -1.46812 -1.54175 l -1.46811,0.0736 h -1.54175 l -1.46959,0.0736 -1.46812,0.0736 h -1.54175 l -1.46812,0.0736 -1.54174,0.0737 -1.46959,0.0736 -1.54176,0.0736 -1.46812,0.0721 -0.14724,-1.98202 -0.1458,-1.98205 v -2.05564 -2.05567 l 0.1458,-1.98351 0.22088,-1.90842 0.22087,-1.83477 0.36666,-1.76263 0.36666,-1.689 0.36667,-1.61538 0.44176,-1.46812 0.44029,-1.39597 0.51391,-1.32086 0.4403,-1.17507 0.44028,-1.10147 0.51391,-1.02783 0.36814,-0.88058 0.44029,-0.80842 0.36666,-0.73333 0.29302,-0.51391 z m -8.29626,4.11132 v 4.99338 h -21.14564 v 3.96407 h 16.22589 v 4.62524 h -10.13106 l -6.09483,-0.0736 v 8.51715 h -4.84612 v -18.64823 -0.44175 l 0.14725,-0.36666 0.0735,-0.4403 0.21942,-0.36665 0.22089,-0.36814 0.29304,-0.29303 0.2945,-0.29451 0.36666,-0.2194 0.36666,-0.14725 0.44177,-0.21942 0.36665,-0.0736 h 0.4403 l 22.76101,-0.14724 z m -51.61539,0.14725 h 9.91165 9.7644 l 0.51391,0.0736 h 0.36813 l 0.44031,0.21942 0.36665,0.14725 0.2945,0.29304 0.36667,0.22087 0.29303,0.29304 0.22088,0.36813 0.14726,0.36667 0.14578,0.44029 0.14725,0.44028 v 0.36814 6.90178 l -0.0736,0.44029 -0.0736,0.44028 -0.1458,0.4403 -0.22088,0.36665 -0.21941,0.36815 -0.2945,0.29303 -0.29304,0.29452 -0.36812,0.2194 -0.36668,0.22087 -0.36666,0.0736 -0.44028,0.14577 h -0.44176 -1.09999 -1.32234 -0.36666 l 6.16698,8.59079 h -5.72668 l -6.02122,-8.59079 h -3.45015 -3.37801 -2.79045 v 8.51717 h -4.84466 l -0.0736,-18.72185 0.0736,-0.36814 0.0722,-0.44029 0.14726,-0.44028 0.14725,-0.36667 0.29304,-0.36813 0.22087,-0.29304 0.36667,-0.22087 0.2945,-0.29304 0.36667,-0.14724 0.44028,-0.21943 h 0.44031 l 0.36811,-0.0737 z m 1.68753,4.91828 v 3.96555 h 16.37315 v -3.96555 h -6.09337 -4.18495 z m 73.49729,11.96879 -1.54174,0.21941 -1.0293,0.58755 -0.36667,0.73479 0.22088,0.73478 0.80695,0.51393 1.46812,0.14578 0.58754,0.0736 0.95568,0.0737 0.44029,0.14725 0.14578,0.29304 -0.14578,0.36667 -0.58754,0.22087 -0.95421,0.0736 -0.95567,-0.14724 -0.80696,-0.29304 -0.51392,-0.44029 -0.95419,0.73333 0.6597,0.58754 1.10146,0.36666 1.61536,0.14725 1.54175,-0.21941 1.02783,-0.58754 0.29451,-0.88205 -0.14724,-0.73332 -0.80695,-0.51391 -1.54176,-0.22088 h -0.58753 l -0.88206,-0.0736 -0.51391,-0.14578 -0.0721,-0.22087 0.14578,-0.36667 0.51393,-0.14725 1.02781,-0.14726 0.95568,0.14726 0.6597,0.21941 0.22089,0.22088 0.9542,-0.66117 -0.51393,-0.36667 -0.88056,-0.29304 -1.54175,-0.14723 z m 6.90179,0 -1.54321,0.21941 -1.02785,0.58755 -0.29303,0.73479 0.22088,0.73478 0.73333,0.51393 1.54175,0.14578 0.51391,0.0736 0.9542,0.0737 0.44176,0.14725 0.14578,0.29304 -0.14578,0.36667 -0.58753,0.22087 -0.88206,0.0736 -1.02783,-0.14724 -0.80694,-0.29304 -0.51392,-0.44029 -0.9542,0.73333 0.73332,0.58754 1.02783,0.36666 1.61537,0.14725 1.54174,-0.21941 1.02784,-0.58754 0.36812,-0.88205 -0.22086,-0.73332 -0.80697,-0.51391 -1.54173,-0.22088 h -0.58755 l -0.88205,-0.0736 -0.44029,-0.14578 -0.14724,-0.22087 0.14724,-0.36667 0.51392,-0.14725 1.02783,-0.14726 1.02783,0.14726 0.58754,0.21941 0.2945,0.22088 0.8806,-0.66117 -0.44029,-0.36667 -0.95422,-0.29304 -1.54174,-0.14723 z m -23.64307,0.21941 v 4.77249 h 1.32234 v -1.9084 h 4.18495 v -0.95421 h -4.18495 v -0.95422 h 4.478 v -0.95566 z m 8.73804,0 -3.15712,4.77249 h 1.54176 l 0.66116,-1.24723 h 3.22928 l 0.73479,1.24723 h 1.46811 l -3.15712,-4.77249 z m 21.36506,0 -3.0835,4.77249 h 1.46811 l 0.7348,-1.24723 h 3.15713 l 0.7348,1.24723 h 1.46811 l -3.0835,-4.77249 z m 5.14062,0 v 4.77249 h 3.81682 l 1.24871,-0.2194 1.02783,-0.7348 0.51392,-1.46812 -0.51392,-1.46812 -1.02783,-0.7348 -1.24871,-0.14725 z m 7.56149,0 v 4.77249 h 5.94757 v -0.9542 h -4.62523 v -1.10146 h 4.25856 v -0.88058 h -4.25856 v -0.88059 h 4.5516 v -0.95566 z m 7.04902,0 v 4.77249 h 1.32235 v -3.5974 l 3.52377,3.5974 h 1.61539 v -4.77249 h -1.32234 v 3.378 l -3.30291,-3.378 z m -40.45649,0.95566 1.02931,1.68754 h -2.05713 z m 21.44015,0 1.02783,1.68754 h -2.05566 z m 5.7267,0 h 2.35017 l 0.80695,0.0722 0.58754,0.51539 0.22087,0.80694 -0.22087,0.80695 -0.58754,0.51393 -0.80695,0.14727 h -2.35017 v -2.86263 z m -40.74954,7.04758 v 0.22089 l 0.0736,0.36664 v 0.2209 l -2.1293,0.14726 -2.1293,0.21939 -2.05565,0.14726 -2.05566,0.21941 -2.05566,0.22088 -1.98351,0.22088 -1.98204,0.2194 -1.83477,0.22088 -1.9099,0.21941 -1.83477,0.29451 -1.83626,0.2194 -1.76263,0.29451 -1.68753,0.29304 -1.68898,0.29451 -1.68901,0.29303 -1.61538,0.29451 -1.54173,0.29304 -1.54175,0.36666 -1.3945,0.29451 -1.46959,0.36666 -1.32087,0.36665 -1.39597,0.29451 -1.24723,0.36667 -1.24871,0.36664 -1.17509,0.44179 -1.17362,0.36665 -1.02783,0.36668 -1.02783,0.36811 -1.0293,0.44031 -0.95421,0.36665 -0.80694,0.44029 -0.88206,0.36666 -0.73332,0.44176 -0.66117,0.44029 -0.7348,0.44029 -0.58607,0.44028 -0.5139,0.44031 -0.44177,0.44175 -0.4403,0.51391 -0.36665,0.44028 -0.29451,0.44031 -0.21941,0.51391 -0.14726,0.44029 -0.0737,0.44027 v 0.51393 0.36814 0.44028 l 0.14726,0.4403 h -3.89192 l -1.90841,-0.51392 -1.39448,-1.3945 -0.51393,-1.90988 v -0.73332 l 0.36666,-0.44175 0.4403,-0.36668 0.51391,-0.44029 0.51391,-0.36665 0.58753,-0.36814 0.58757,-0.44029 0.66115,-0.36666 0.73334,-0.36814 0.73479,-0.36666 0.73331,-0.36665 0.88207,-0.36668 0.80694,-0.36811 0.95421,-0.29305 0.95567,-0.36814 1.02783,-0.36666 1.02783,-0.29304 1.10146,-0.36813 1.10147,-0.29303 1.17361,-0.36666 1.24872,-0.29451 1.17507,-0.29303 1.32085,-0.29451 1.32236,-0.29304 1.32086,-0.2945 1.39598,-0.29304 1.4681,-0.29303 1.46813,-0.29451 1.54174,-0.2194 1.46812,-0.29451 1.61537,-0.22089 1.61538,-0.29304 1.61537,-0.22087 1.68901,-0.21942 1.76262,-0.22088 1.689,-0.21941 1.83478,-0.22087 1.83625,-0.14725 1.83478,-0.21941 1.9099,-0.22088 1.83477,-0.14577 1.98204,-0.14726 1.98352,-0.2209 1.98202,-0.0736 2.05567,-0.1458 2.05565,-0.14723 2.1293,-0.14726 2.12928,-0.0736 z"
       id="path2991"
       inkscape:connector-curvature="0" />
    <path
       inkscape:connector-curvature="0"
       id="path4539"
       style="font-style:normal;font-variant:normal;font-weight:bold;font-stretch:normal;font-size:17.45387268px;line-height:1.25;font-family:Aharoni;-inkscape-font-specification:'Aharoni, Bold';text-align:start;letter-spacing:0px;word-spacing:0px;writing-mode:lr-tb;text-anchor:start;fill:#1d7852;fill-opacity:1;stroke:none;stroke-width:0.57608294px;stroke-linecap:butt;stroke-linejoin:miter;stroke-opacity:1"
       d="m 307.34019,386.73901 h 3.28112 v 12.72394 h -3.28112 z" />
    <path
       inkscape:connector-curvature="0"
       id="path4541"
       style="font-style:normal;font-variant:normal;font-weight:bold;font-stretch:normal;font-size:17.45387268px;line-height:1.25;font-family:Aharoni;-inkscape-font-specification:'Aharoni, Bold';text-align:start;letter-spacing:0px;word-spacing:0px;writing-mode:lr-tb;text-anchor:start;fill:#1d7852;fill-opacity:1;stroke:none;stroke-width:0.57608294px;stroke-linecap:butt;stroke-linejoin:miter;stroke-opacity:1"
       d="m 313.8513,386.73901 h 3.66463 l 4.62766,8.72694 v -8.72694 h 3.11068 v 12.72394 h -3.66463 l -4.62766,-8.72693 v 8.72693 h -3.11068 z" />
    <path
       inkscape:connector-curvature="0"
       id="path4543"
       style="font-style:normal;font-variant:normal;font-weight:bold;font-stretch:normal;font-size:17.45387268px;line-height:1.25;font-family:Aharoni;-inkscape-font-specification:'Aharoni, Bold';text-align:start;letter-spacing:0px;word-spacing:0px;writing-mode:lr-tb;text-anchor:start;fill:#1d7852;fill-opacity:1;stroke:none;stroke-width:0.57608294px;stroke-linecap:butt;stroke-linejoin:miter;stroke-opacity:1"
       d="m 326.95875,386.73901 h 11.72682 v 2.48002 h -4.21859 v 10.24392 h -3.28112 v -10.24392 h -4.22711 z" />
    <path
       inkscape:connector-curvature="0"
       id="path4545"
       style="font-style:normal;font-variant:normal;font-weight:bold;font-stretch:normal;font-size:17.45387268px;line-height:1.25;font-family:Aharoni;-inkscape-font-specification:'Aharoni, Bold';text-align:start;letter-spacing:0px;word-spacing:0px;writing-mode:lr-tb;text-anchor:start;fill:#1d7852;fill-opacity:1;stroke:none;stroke-width:0.57608294px;stroke-linecap:butt;stroke-linejoin:miter;stroke-opacity:1"
       d="m 345.03476,392.38084 q 1.03121,0 1.47437,-0.38351 0.45169,-0.38351 0.45169,-1.26131 0,-0.86929 -0.45169,-1.24427 -0.44316,-0.37499 -1.47437,-0.37499 h -1.38063 v 3.26408 z m -1.38063,2.26696 v 4.81515 H 340.373 v -12.72394 h 5.01118 q 2.5141,0 3.68167,0.84372 1.17609,0.84372 1.17609,2.66751 0,1.26131 -0.61361,2.07094 -0.60509,0.80963 -1.83232,1.19314 0.67327,0.1534 1.20166,0.69883 0.53691,0.53692 1.08235,1.6363 l 1.78118,3.6135 h -3.49419 l -1.55107,-3.16181 q -0.46873,-0.95451 -0.95451,-1.30393 -0.47725,-0.34941 -1.27836,-0.34941 z" />
    <path
       inkscape:connector-curvature="0"
       id="path4547"
       style="font-style:normal;font-variant:normal;font-weight:bold;font-stretch:normal;font-size:17.45387268px;line-height:1.25;font-family:Aharoni;-inkscape-font-specification:'Aharoni, Bold';text-align:start;letter-spacing:0px;word-spacing:0px;writing-mode:lr-tb;text-anchor:start;fill:#1d7852;fill-opacity:1;stroke:none;stroke-width:0.57608294px;stroke-linecap:butt;stroke-linejoin:miter;stroke-opacity:1"
       d="m 361.5256,397.14486 h -5.13048 l -0.80963,2.31809 h -3.29817 l 4.71289,-12.72394 h 3.91178 l 4.71288,12.72394 h -3.29817 z m -4.31233,-2.36071 h 3.48566 l -1.73857,-5.0623 z" />
    <path
       inkscape:connector-curvature="0"
       id="path4549"
       style="font-style:normal;font-variant:normal;font-weight:bold;font-stretch:normal;font-size:17.45387268px;line-height:1.25;font-family:Aharoni;-inkscape-font-specification:'Aharoni, Bold';text-align:start;letter-spacing:0px;word-spacing:0px;writing-mode:lr-tb;text-anchor:start;fill:#1d7852;fill-opacity:1;stroke:none;stroke-width:0.57608294px;stroke-linecap:butt;stroke-linejoin:miter;stroke-opacity:1"
       d="m 367.30378,386.73901 h 3.66463 l 4.62767,8.72694 v -8.72694 h 3.11067 v 12.72394 h -3.66463 l -4.62766,-8.72693 v 8.72693 h -3.11068 z" />
    <path
       inkscape:connector-curvature="0"
       id="path4551"
       style="font-style:normal;font-variant:normal;font-weight:bold;font-stretch:normal;font-size:17.45387268px;line-height:1.25;font-family:Aharoni;-inkscape-font-specification:'Aharoni, Bold';text-align:start;letter-spacing:0px;word-spacing:0px;writing-mode:lr-tb;text-anchor:start;fill:#1d7852;fill-opacity:1;stroke:none;stroke-width:0.57608294px;stroke-linecap:butt;stroke-linejoin:miter;stroke-opacity:1"
       d="m 381.92822,386.73901 h 8.85477 v 2.48002 h -5.57364 v 2.36923 h 5.24127 v 2.48001 h -5.24127 v 2.91466 h 5.76114 v 2.48002 h -9.04227 z" />
    <path
       inkscape:connector-curvature="0"
       id="path4553"
       style="font-style:normal;font-variant:normal;font-weight:bold;font-stretch:normal;font-size:17.45387268px;line-height:1.25;font-family:Aharoni;-inkscape-font-specification:'Aharoni, Bold';text-align:start;letter-spacing:0px;word-spacing:0px;writing-mode:lr-tb;text-anchor:start;fill:#1d7852;fill-opacity:1;stroke:none;stroke-width:0.57608294px;stroke-linecap:butt;stroke-linejoin:miter;stroke-opacity:1"
       d="m 392.34259,386.73901 h 11.72682 v 2.48002 h -4.21858 v 10.24392 h -3.28113 v -10.24392 h -4.22711 z" />
  </g>
</svg>
