<?xml version="1.0" encoding="UTF-8" standalone="no"?>
<svg
   xmlns:dc="http://purl.org/dc/elements/1.1/"
   xmlns:cc="http://creativecommons.org/ns#"
   xmlns:rdf="http://www.w3.org/1999/02/22-rdf-syntax-ns#"
   xmlns:svg="http://www.w3.org/2000/svg"
   xmlns="http://www.w3.org/2000/svg"
   xmlns:sodipodi="http://sodipodi.sourceforge.net/DTD/sodipodi-0.dtd"
   xmlns:inkscape="http://www.inkscape.org/namespaces/inkscape"
   sodipodi:docname="symbol-group.svg"
   inkscape:version="1.0 (4035a4fb49, 2020-05-01)"
   version="1.1"
   id="svg2"
   height="30"
   width="30">
  <defs
     id="defs4" />
  <sodipodi:namedview
     inkscape:document-rotation="0"
     inkscape:snap-intersection-paths="false"
     inkscape:snap-page="true"
     inkscape:bbox-nodes="true"
     inkscape:bbox-paths="true"
     inkscape:snap-bbox="true"
     units="px"
     fit-margin-bottom="0"
     fit-margin-right="0"
     fit-margin-left="0"
     fit-margin-top="0"
     inkscape:window-maximized="1"
     inkscape:window-y="-8"
     inkscape:window-x="-8"
     inkscape:window-height="1018"
     inkscape:window-width="1920"
     showgrid="false"
     inkscape:current-layer="layer1"
     inkscape:document-units="px"
     inkscape:cy="14.775333"
     inkscape:cx="5.6436719"
     inkscape:zoom="15.999999"
     inkscape:pageshadow="2"
     inkscape:pageopacity="0.0"
     borderopacity="1.0"
     bordercolor="#666666"
     pagecolor="#ffffff"
     id="base" />
  <metadata
     id="metadata7">
    <rdf:RDF>
      <cc:Work
         rdf:about="">
        <dc:format>image/svg+xml</dc:format>
        <dc:type
           rdf:resource="http://purl.org/dc/dcmitype/StillImage" />
        <dc:title></dc:title>
      </cc:Work>
    </rdf:RDF>
  </metadata>
  <g
     transform="translate(-320.59587,-283.1464)"
     id="layer1"
     inkscape:groupmode="layer"
     inkscape:label="Ebene 1">
    <path
       id="path4155-5"
       style="opacity:1;fill:#008080;fill-opacity:1;stroke:none;stroke-width:0.228316;stroke-linecap:round;stroke-linejoin:miter;stroke-miterlimit:4;stroke-dasharray:none;stroke-opacity:1"
       d="m 335.59869,286.6432 a 5.5319007,5.5318901 0 0 0 -3.12196,0.96497 c 2.35144,0.88176 4.04585,3.10312 4.2122,5.72912 0.0531,0.12438 0.0803,0.2582 0.0803,0.39342 0,0.13522 -0.0273,0.26906 -0.0803,0.39343 -0.0846,1.33844 -0.57027,2.56969 -1.33295,3.57606 a 5.5319007,5.5318901 0 0 0 0.24271,0.007 5.5319007,5.5318901 0 0 0 5.53144,-5.53143 5.5319007,5.5318901 0 0 0 -5.53144,-5.53144 z" />
    <path
       id="path4157-7-0"
       style="fill:#008080;fill-opacity:1;fill-rule:evenodd;stroke:none;stroke-width:0.456632px;stroke-linecap:butt;stroke-linejoin:miter;stroke-opacity:1"
       d="m 334.98409,298.64364 c -0.47055,-1e-5 -0.95654,0.16518 -1.3858,0.55392 h 2.00824 0.61459 c 1.36014,0 2.77743,1.05631 3.34902,3.04757 l 0.007,0.0235 1.0785,4.56256 c 0.18645,0.099 3.47689,-1.44801 4.27678,-1.78705 l -0.96301,-4.0791 c -0.49162,-1.71269 -1.47027,-2.32139 -2.38599,-2.32139 h -5.98358 z"
       sodipodi:nodetypes="sccscccccscs" />
    <ellipse
       style="opacity:1;fill:#008080;fill-opacity:1;stroke:none;stroke-width:0.228316;stroke-linecap:round;stroke-linejoin:miter;stroke-miterlimit:4;stroke-dasharray:none;stroke-opacity:1"
       id="path4155-4"
       cx="329.92902"
       cy="293.92038"
       rx="5.5319004"
       ry="5.5318899" />
    <path
       style="fill:#008080;fill-opacity:1;fill-rule:evenodd;stroke:none;stroke-width:0.456632px;stroke-linecap:butt;stroke-linejoin:miter;stroke-opacity:1"
       d="m 323.94411,300.389 c -0.91575,0 -1.8948,0.60911 -2.38639,2.32178 l -0.96185,4.07871 c 2.22262,2.90938 5.67184,4.61844 9.333,4.62481 3.66116,-0.007 7.11157,-1.71543 9.3342,-4.62481 l -0.96302,-4.07871 c -0.49163,-1.71267 -1.47066,-2.32178 -2.38639,-2.32178 h -5.98479 z"
       id="path4157-7-6"
       inkscape:connector-curvature="0" />
    <path
       d="m 341.26251,285.04139 a 5.5319007,5.5318901 0 0 0 -3.12195,0.96497 c 2.35143,0.88176 4.04584,3.10313 4.21218,5.72912 0.0531,0.1244 0.0803,0.25823 0.0803,0.39343 0,0.13522 -0.0272,0.26904 -0.0803,0.39343 -0.0846,1.33845 -0.57026,2.56968 -1.33293,3.57606 a 5.5319007,5.5318901 0 0 0 0.2427,0.007 5.5319007,5.5318901 0 0 0 5.53143,-5.53143 5.5319007,5.5318901 0 0 0 -5.53143,-5.53143 z"
       style="opacity:1;fill:#008080;fill-opacity:1;stroke:none;stroke-width:0.228316;stroke-linecap:round;stroke-linejoin:miter;stroke-miterlimit:4;stroke-dasharray:none;stroke-opacity:1"
       id="path4155-5-6" />
    <path
       sodipodi:nodetypes="sccscccccscs"
       d="m 340.6479,297.04183 c -0.47055,0 -0.95654,0.16518 -1.38579,0.55393 h 2.00824 0.61459 c 1.36014,0 2.77741,1.05631 3.34901,3.04757 l 0.007,0.0235 1.0785,4.56255 c 0.18645,0.099 3.47689,-1.448 4.27677,-1.78704 l -0.963,-4.07909 c -0.49161,-1.71269 -1.47026,-2.32141 -2.38601,-2.32141 h -5.98358 z"
       style="fill:#008080;fill-opacity:1;fill-rule:evenodd;stroke:none;stroke-width:0.456632px;stroke-linecap:butt;stroke-linejoin:miter;stroke-opacity:1"
       id="path4157-7-0-8" />
  </g>
</svg>
