<?xml version="1.0" encoding="UTF-8" standalone="no"?>
<!-- Created with Inkscape (http://www.inkscape.org/) -->

<svg
   xmlns:dc="http://purl.org/dc/elements/1.1/"
   xmlns:cc="http://creativecommons.org/ns#"
   xmlns:rdf="http://www.w3.org/1999/02/22-rdf-syntax-ns#"
   xmlns:svg="http://www.w3.org/2000/svg"
   xmlns="http://www.w3.org/2000/svg"
   xmlns:sodipodi="http://sodipodi.sourceforge.net/DTD/sodipodi-0.dtd"
   xmlns:inkscape="http://www.inkscape.org/namespaces/inkscape"
   width="50"
   height="50"
   id="svg2"
   version="1.1"
   inkscape:version="0.92.3 (2405546, 2018-03-11)"
   sodipodi:docname="Trash.svg">
  <defs
     id="defs4" />
  <sodipodi:namedview
     id="base"
     pagecolor="#ffffff"
     bordercolor="#666666"
     borderopacity="1.0"
     inkscape:pageopacity="0.0"
     inkscape:pageshadow="2"
     inkscape:zoom="5.6568542"
     inkscape:cx="-7.3578494"
     inkscape:cy="6.783678"
     inkscape:document-units="px"
     inkscape:current-layer="layer1"
     showgrid="false"
     inkscape:window-width="1920"
     inkscape:window-height="1018"
     inkscape:window-x="-8"
     inkscape:window-y="-8"
     inkscape:window-maximized="1"
     fit-margin-top="0"
     fit-margin-left="0"
     fit-margin-right="0"
     fit-margin-bottom="0"
     units="px"
     inkscape:snap-bbox="true"
     inkscape:bbox-paths="true"
     inkscape:bbox-nodes="true"
     inkscape:snap-page="true"
     inkscape:snap-bbox-edge-midpoints="true"
     inkscape:snap-smooth-nodes="true"
     inkscape:snap-bbox-midpoints="true"
     inkscape:object-paths="true"
     inkscape:snap-intersection-paths="true" />
  <metadata
     id="metadata7">
    <rdf:RDF>
      <cc:Work
         rdf:about="">
        <dc:format>image/svg+xml</dc:format>
        <dc:type
           rdf:resource="http://purl.org/dc/dcmitype/StillImage" />
        <dc:title />
      </cc:Work>
    </rdf:RDF>
  </metadata>
  <g
     inkscape:label="Ebene 1"
     inkscape:groupmode="layer"
     id="layer1"
     transform="translate(-320.59587,-263.1464)">
    <path
       style="opacity:1;fill:#0000ff;fill-opacity:1;stroke:none;stroke-width:5;stroke-linecap:round;stroke-linejoin:miter;stroke-miterlimit:4;stroke-dasharray:none;stroke-opacity:1"
       d="m 334.4708,274.77144 4,26.75 h 7.125 7.125 l 4,-26.75 h -11.125 z m 2.04688,1.85937 h 4.71875 l 0.20898,3.26758 h -4.43945 z m 5.78125,0 h 3.29687 3.29688 l -0.21094,3.26758 h -3.08594 -3.08593 z m 7.65625,0 h 4.71875 l -0.48828,3.26758 h -4.43946 z m -12.79102,4.33008 h 4.34961 l 0.25977,4.05664 h -4.00195 z m 5.41407,0 h 3.01757 3.01758 l -0.25976,4.05664 h -2.75782 -2.75781 z m 7.0996,0 h 4.34961 l -0.60742,4.05664 h -4.00195 z m -11.74804,5.11914 h 3.91211 l 0.25976,4.05469 h -3.56445 z m 4.97656,0 h 2.68945 2.68946 l -0.25977,4.05469 h -2.42969 -2.42968 z m 6.44336,0 h 3.91211 l -0.60742,4.05469 h -3.56446 z m -10.6543,5.11719 h 3.47461 l 0.25977,4.05469 h -3.12891 z m 4.53907,0 h 2.36132 2.36133 l -0.25976,4.05469 h -2.10157 -2.10156 z m 5.78711,0 h 3.4746 l -0.60546,4.05469 h -3.12891 z m -9.56055,5.11719 h 3.03711 l 0.21484,3.34765 h -2.75195 z m 4.10156,0 h 2.0332 2.03321 l -0.21485,3.34765 h -1.81836 -1.81836 z m 5.13086,0 h 3.03711 l -0.5,3.34765 h -2.75195 z"
       id="path9494-9"
       inkscape:connector-curvature="0" />
    <path
       style="color:#000000;font-style:normal;font-variant:normal;font-weight:normal;font-stretch:normal;font-size:medium;line-height:normal;font-family:sans-serif;font-variant-ligatures:normal;font-variant-position:normal;font-variant-caps:normal;font-variant-numeric:normal;font-variant-alternates:normal;font-feature-settings:normal;text-indent:0;text-align:start;text-decoration:none;text-decoration-line:none;text-decoration-style:solid;text-decoration-color:#000000;letter-spacing:normal;word-spacing:normal;text-transform:none;writing-mode:lr-tb;direction:ltr;text-orientation:mixed;dominant-baseline:auto;baseline-shift:baseline;text-anchor:start;white-space:normal;shape-padding:0;clip-rule:nonzero;display:inline;overflow:visible;visibility:visible;opacity:1;isolation:auto;mix-blend-mode:normal;color-interpolation:sRGB;color-interpolation-filters:linearRGB;solid-color:#000000;solid-opacity:1;vector-effect:none;fill:#0000ff;fill-opacity:1;fill-rule:nonzero;stroke:none;stroke-width:3.52366376;stroke-linecap:round;stroke-linejoin:miter;stroke-miterlimit:4;stroke-dasharray:none;stroke-dashoffset:0;stroke-opacity:1;color-rendering:auto;image-rendering:auto;shape-rendering:auto;text-rendering:auto;enable-background:accumulate"
       d="m 345.59678,263.1464 c -13.78625,0 -25.00108,11.21282 -25.00108,24.99904 0,13.78623 11.21483,25.00104 25.00108,25.00104 13.78625,0 24.99909,-11.21481 24.99909,-25.00104 0,-13.78622 -11.21284,-24.99904 -24.99909,-24.99904 z m 0,3.52388 c 11.88192,0 21.4752,9.59327 21.4752,21.47516 0,11.88191 -9.59328,21.47716 -21.4752,21.47716 -11.88192,0 -21.47719,-9.59525 -21.47719,-21.47716 0,-11.88189 9.59527,-21.47516 21.47719,-21.47516 z"
       id="path13925"
       inkscape:connector-curvature="0" />
  </g>
</svg>
